<?xml version="1.0" standalone="no"?>
<!DOCTYPE svg PUBLIC "-//W3C//DTD SVG 1.1//EN" "http://www.w3.org/Graphics/SVG/1.1/DTD/svg11.dtd" >
<svg>
<metadata>
Created by FontForge 20090622 at Tue Jun 20 20:30:32 2017
 By deploy user
Copyright (c) Christian Schwartz, 2007. All rights reserved.
</metadata>
<defs>
<font id="StagSans-SemiboldItalic" horiz-adv-x="400" >
  <font-face 
    font-family="Stag Sans Semibold"
    font-weight="600"
    font-style="italic"
    font-stretch="normal"
    units-per-em="1000"
    panose-1="2 11 7 3 4 0 0 2 0 4"
    ascent="800"
    descent="-200"
    x-height="527"
    cap-height="700"
    bbox="-239 -228 1244 927"
    underline-thickness="50"
    underline-position="-50"
    slope="-12"
    unicode-range="U+0020-U+FB02"
  />
<missing-glyph horiz-adv-x="386" 
 />
    <glyph glyph-name="f_f" unicode="ff" horiz-adv-x="667" 
d="M15 0l91 411h-57l26 116h57l6 27q19 79 68.5 115.5t130.5 36.5q61 0 96 -14l-22 -101h-24q-34 0 -49.5 -8.5t-21.5 -34.5l-5 -21h136l7 31q19 81 68.5 117.5t133.5 36.5q60 0 97 -15l-22 -100h-27q-34 0 -50 -9t-22 -36l-6 -25h83l-26 -116h-83l-93 -411h-176l91 411
h-137l-93 -411h-177z" />
    <glyph glyph-name=".notdef" horiz-adv-x="386" 
 />
    <glyph glyph-name=".null" horiz-adv-x="0" 
 />
    <glyph glyph-name="nonmarkingreturn" horiz-adv-x="333" 
 />
    <glyph glyph-name="space" unicode=" " horiz-adv-x="177" 
 />
    <glyph glyph-name="exclam" unicode="!" horiz-adv-x="289" 
d="M74 218l53 377l24 105h192l-25 -105l-130 -377h-114zM101 -7q-39 0 -64.5 25.5t-25.5 61.5q0 40 29 67.5t71 27.5q39 0 64.5 -25.5t25.5 -61.5q0 -40 -29.5 -67.5t-70.5 -27.5z" />
    <glyph glyph-name="quotedbl" unicode="&#x22;" horiz-adv-x="407" 
d="M97 458l11 157l20 85h158l-20 -85l-63 -157h-106zM295 458l12 157l20 85h157l-19 -85l-63 -157h-107z" />
    <glyph glyph-name="numbersign" unicode="#" horiz-adv-x="524" 
d="M32 0l51 191h-72l28 124h79l25 94h-75l29 124h80l45 167h115l-45 -167h80l45 167h115l-45 -167h73l-29 -124h-78l-25 -94h74l-28 -124h-81l-51 -191h-115l51 191h-80l-51 -191h-115zM233 315h80l25 94h-80z" />
    <glyph glyph-name="dollar" unicode="$" horiz-adv-x="544" 
d="M134 -102l23 102q-100 14 -166 69l26 114h72q38 -48 97 -61l38 164q-76 27 -115 71t-39 117q0 109 73 170t191 63l14 60h89l-16 -67q82 -14 140 -58l-26 -110h-70q-35 34 -72 45l-36 -159q81 -28 122.5 -71t41.5 -117q0 -107 -74.5 -170t-201.5 -66l-22 -96h-89zM348 202
q0 34 -43 53l-31 -134q74 13 74 81zM232 506q0 -34 42 -55l31 132q-73 -13 -73 -77z" />
    <glyph glyph-name="percent" unicode="%" horiz-adv-x="861" 
d="M238 422q25 0 43 25t25.5 55t7.5 57q0 56 -43 56q-37 0 -57 -46.5t-20 -91.5q0 -55 44 -55zM229 329q-73 0 -118.5 41.5t-45.5 111.5q0 95 62 160.5t152 65.5q73 0 118.5 -42t45.5 -113q0 -92 -62 -158t-152 -66zM76 -34l629 763h119l-629 -763h-119zM634 85
q36 0 56 45.5t20 90.5q0 57 -43 57q-36 0 -56.5 -46.5t-20.5 -91.5q0 -55 44 -55zM626 -9q-74 0 -119.5 42t-45.5 112q0 94 62 160t152 66q73 0 118.5 -41.5t45.5 -113.5q0 -92 -62 -158.5t-151 -66.5z" />
    <glyph glyph-name="ampersand" unicode="&#x26;" horiz-adv-x="712" 
d="M250 -9q-107 0 -174.5 50.5t-67.5 144.5q0 79 52 135.5t137 82.5q-15 40 -15 79q0 99 71.5 162.5t192.5 63.5q107 0 175 -44l-25 -121h-72q-30 32 -76 32q-36 0 -59 -22t-23 -59q0 -38 37 -89l96 -134q53 90 64 145h134v-48q-35 -108 -118 -211l79 -114l2 -44h-184
l-33 47q-87 -56 -193 -56zM290 118q46 0 83 27l-122 169q-59 -36 -59 -106q0 -42 26.5 -66t71.5 -24z" />
    <glyph glyph-name="quotesingle" unicode="'" horiz-adv-x="208" 
d="M97 458l11 157l20 85h158l-20 -85l-62 -157h-107z" />
    <glyph glyph-name="parenleft" unicode="(" horiz-adv-x="354" 
d="M213 -49q-76 33 -124.5 108.5t-48.5 194.5q0 169 93.5 306t252.5 181h60l-26 -113q-96 -38 -155 -145.5t-59 -237.5q0 -145 82 -187l-24 -107h-51z" />
    <glyph glyph-name="parenright" unicode=")" horiz-adv-x="354" 
d="M-50 -49l26 113q96 37 155 145t59 238q0 145 -82 187l25 107h51q76 -33 124 -108t48 -195q0 -169 -92.5 -306t-251.5 -181h-62z" />
    <glyph glyph-name="asterisk" unicode="*" horiz-adv-x="404" 
d="M279 343l-21 43l-8 79l-43 -79l-37 -35l-85 88l37 35l73 35l-74 6l-43 20l60 116l43 -20l54 -55l-11 77l10 47h130l-13 -58l-42 -73l72 42l48 10l16 -125l-49 -9l-75 10l56 -51l20 -41z" />
    <glyph glyph-name="plus" unicode="+" horiz-adv-x="522" 
d="M150 96l41 180h-169l32 139h169l41 180h149l-41 -180h168l-32 -139h-168l-41 -180h-149z" />
    <glyph glyph-name="comma" unicode="," horiz-adv-x="223" 
d="M-66 -115l16 74q36 4 57 15.5t21 26.5q0 5 -2 8.5t-4.5 5.5t-8.5 6t-9 7q-28 21 -28 57q0 39 27.5 64.5t67.5 25.5q41 0 68 -26t27 -69q0 -89 -61.5 -139.5t-170.5 -55.5z" />
    <glyph glyph-name="hyphen" unicode="-" horiz-adv-x="294" 
d="M16 224l32 137h246l-32 -137h-246z" />
    <glyph glyph-name="period" unicode="." horiz-adv-x="222" 
d="M67 -7q-39 0 -64 25.5t-25 61.5q0 40 29 67.5t71 27.5q39 0 64.5 -25.5t25.5 -61.5q0 -40 -29.5 -67.5t-71.5 -27.5z" />
    <glyph glyph-name="slash" unicode="/" horiz-adv-x="370" 
d="M-53 -49v35l391 755h127v-35l-392 -755h-126z" />
    <glyph glyph-name="zero" unicode="0" horiz-adv-x="684" 
d="M323 121q44 0 79 35t55 87t30 104.5t10 96.5q0 129 -88 129q-45 0 -81.5 -35t-57 -87.5t-31.5 -104.5t-11 -94q0 -63 21 -97t74 -34zM310 -9q-121 0 -195.5 73t-74.5 197q0 115 42.5 215t130.5 166.5t205 66.5q124 0 196 -74t72 -200q0 -85 -25 -163.5t-71 -141.5
t-118.5 -101t-161.5 -38z" />
    <glyph glyph-name="one" unicode="1" 
d="M78 0l117 510l-87 -42h-40l31 136l196 96h136l-161 -700h-192z" />
    <glyph glyph-name="two" unicode="2" horiz-adv-x="551" 
d="M-37 0l33 147l226 168q73 54 113.5 98t40.5 90q0 64 -83 64q-67 0 -133 -43h-68l31 136q96 49 211 49q103 0 169.5 -46t66.5 -142q0 -82 -53 -144.5t-161 -136.5l-137 -96h275l-33 -144h-498z" />
    <glyph glyph-name="three" unicode="3" horiz-adv-x="538" 
d="M216 -10q-149 0 -236 72l28 117h70q42 -54 123 -56q51 0 82.5 23t31.5 65q0 80 -99 80h-51l29 125h59q52 0 83.5 22.5t31.5 65.5q0 69 -83 71q-65 0 -120 -34h-69l29 125q85 44 198 44q47 0 86 -9.5t71.5 -30t50.5 -56.5t18 -85q0 -72 -42.5 -117.5t-115.5 -61.5v-4
q54 -14 82.5 -50.5t28.5 -92.5q0 -97 -80 -155t-206 -58z" />
    <glyph glyph-name="four" unicode="4" horiz-adv-x="610" 
d="M269 0l33 146h-302l34 146l403 408h182l-99 -429h76l-29 -125h-76l-33 -146h-189zM170 271h165l51 222h-4l-212 -218v-4z" />
    <glyph glyph-name="five" unicode="5" horiz-adv-x="558" 
d="M217 -9q-153 0 -233 65l28 117h74q43 -49 121 -49q57 0 94.5 33t37.5 89q0 36 -22 56t-57 20q-59 0 -99 -40h-105l97 418h434l-33 -144h-299l-34 -144h3q51 37 122 37q85 0 136.5 -50t51.5 -139q0 -126 -91 -197.5t-226 -71.5z" />
    <glyph glyph-name="six" unicode="6" horiz-adv-x="626" 
d="M304 -9q-125 0 -194.5 66.5t-69.5 191.5q0 88 28 170t80 143q114 147 311 147q120 0 190 -48l-29 -124h-73q-32 34 -93 34q-107 0 -164 -90q-25 -38 -43 -93q73 57 163 57q84 0 136.5 -50t52.5 -142q0 -112 -82.5 -187t-212.5 -75zM326 325q-53 0 -98 -28q-5 -31 -5 -74
q0 -111 84 -111q47 0 77 36.5t30 95.5q0 81 -88 81z" />
    <glyph glyph-name="seven" unicode="7" horiz-adv-x="535" 
d="M54 0v60l368 488v4h-333l34 148h488l-37 -158l-330 -542h-190z" />
    <glyph glyph-name="eight" unicode="8" horiz-adv-x="617" 
d="M283 -10q-49 0 -94 9.5t-87 30t-67.5 60.5t-25.5 94q0 151 174 193v4q-37 18 -57.5 50t-20.5 71q0 95 76.5 151t196.5 56q113 0 179.5 -49.5t66.5 -133.5q0 -65 -38 -105t-101 -56v-4q100 -42 100 -145q0 -105 -81 -165.5t-221 -60.5zM287 111q53 0 84 33.5t31 83.5
q0 39 -22.5 63t-68.5 24q-53 0 -85 -35t-32 -86q0 -38 26.5 -60.5t66.5 -22.5zM355 425q39 0 65 25t26 67q0 31 -19.5 50t-54.5 19q-40 0 -66 -25.5t-26 -68.5q0 -32 21.5 -49.5t53.5 -17.5z" />
    <glyph glyph-name="nine" unicode="9" horiz-adv-x="628" 
d="M209 -10q-121 0 -195 47l28 121h70q36 -31 99 -31q106 0 156 65q36 43 55 116q-68 -55 -167 -55q-85 0 -137 47.5t-52 131.5q0 121 87 198.5t215 77.5q119 0 189.5 -66.5t70.5 -186.5q0 -207 -111 -338q-109 -127 -308 -127zM337 373q51 0 101 25q4 54 4 81
q0 106 -81 106q-50 0 -82 -36.5t-32 -98.5q0 -77 90 -77z" />
    <glyph glyph-name="colon" unicode=":" horiz-adv-x="223" 
d="M66 -7q-38 0 -63.5 25.5t-25.5 61.5q0 40 29 67.5t70 27.5q39 0 64.5 -25.5t25.5 -61.5q0 -40 -29.5 -67.5t-70.5 -27.5zM130 277q-39 0 -64 25t-25 62q0 40 29 67.5t70 27.5q38 0 64 -25.5t26 -61.5q0 -40 -29.5 -67.5t-70.5 -27.5z" />
    <glyph glyph-name="semicolon" unicode=";" horiz-adv-x="223" 
d="M-66 -115l16 74q36 4 57 15.5t21 26.5q0 5 -2 8.5t-4.5 5.5t-8.5 6t-9 7q-28 21 -28 57q0 39 28 64.5t68 25.5q41 0 67.5 -26t26.5 -69q0 -89 -61.5 -139.5t-170.5 -55.5zM129 277q-39 0 -64 25t-25 62q0 40 29 67.5t70 27.5q38 0 64 -25.5t26 -61.5q0 -40 -29.5 -67.5
t-70.5 -27.5z" />
    <glyph glyph-name="less" unicode="&#x3c;" horiz-adv-x="445" 
d="M344 83l-323 192l28 121l410 180h37l-33 -142l-248 -106v-3l197 -112l-30 -130h-38z" />
    <glyph glyph-name="equal" unicode="=" horiz-adv-x="492" 
d="M-7 140l31 133h450l-30 -133h-451zM42 350l30 133h450l-30 -133h-450z" />
    <glyph glyph-name="greater" unicode="&#x3e;" horiz-adv-x="445" 
d="M-19 83l33 142l247 106v3l-196 111l30 131h38l323 -192l-28 -122l-409 -179h-38z" />
    <glyph glyph-name="question" unicode="?" horiz-adv-x="466" 
d="M109 218q3 66 24.5 107.5t77.5 81.5q8 6 28.5 20t30.5 21.5t23 20t18.5 26t5.5 28.5q0 50 -65 50q-53 0 -100 -31h-68l29 126q73 42 181 42q96 0 153.5 -41t57.5 -124q0 -123 -152 -203q-55 -30 -81.5 -56t-33.5 -68h-129zM146 -7q-38 0 -63.5 25.5t-25.5 61.5
q0 40 29 67.5t70 27.5q39 0 64.5 -25.5t25.5 -61.5q0 -40 -29.5 -67.5t-70.5 -27.5z" />
    <glyph glyph-name="at" unicode="@" horiz-adv-x="875" 
d="M433 -134q-82 0 -153.5 21.5t-130 64t-92 114.5t-33.5 165q0 101 41.5 186t107.5 138t146 82.5t160 29.5q167 0 276 -87t109 -240q0 -134 -73 -204t-180 -70q-111 0 -138 63q-54 -62 -131 -62q-56 0 -89 37t-33 106q0 96 61 171.5t158 75.5q61 0 101 -42q27 36 72 36h68
l-54 -238q-12 -54 25 -54q46 0 77 46t31 135q0 112 -74.5 174.5t-208.5 62.5q-64 0 -124 -22t-108.5 -63.5t-78 -109t-29.5 -150.5q0 -141 81.5 -208.5t219.5 -67.5q139 0 253 67h37l-22 -94q-106 -63 -272 -63zM407 169q34 0 62 28l35 151q-18 6 -39 6q-42 0 -69 -41
t-27 -96q0 -48 38 -48z" />
    <glyph glyph-name="A" unicode="A" horiz-adv-x="692" 
d="M-34 0v45l366 655h212l80 -655v-45h-189l-14 163h-222l-84 -163h-149zM388 528l-122 -235h144l-20 235h-2z" />
    <glyph glyph-name="B" unicode="B" horiz-adv-x="631" 
d="M-1 0l161 700h231q117 0 178.5 -44t61.5 -125q0 -134 -151 -169v-4q116 -24 116 -136q0 -75 -43 -126.5t-111 -73.5t-157 -22h-286zM215 124h79q52 0 82.5 26t30.5 80q0 35 -21 54.5t-62 19.5h-67zM284 419h59q107 0 107 92q0 64 -78 64h-53z" />
    <glyph glyph-name="C" unicode="C" horiz-adv-x="634" 
d="M353 -9q-142 0 -227.5 70.5t-85.5 214.5q0 84 28 161t79.5 138t132.5 97.5t180 36.5q127 0 207 -50l-29 -125h-73q-42 39 -114 39q-56 0 -99.5 -29.5t-67.5 -76t-36 -96.5t-12 -99q0 -149 137 -149q69 0 129 44h75l-30 -133q-80 -43 -194 -43z" />
    <glyph glyph-name="D" unicode="D" horiz-adv-x="712" 
d="M220 129h79q57 0 100 26.5t67 70t35 92t11 100.5q0 149 -128 149h-63zM-1 0l161 700h239q147 0 227.5 -74t80.5 -210q0 -113 -44.5 -205.5t-139.5 -151.5t-226 -59h-298z" />
    <glyph glyph-name="E" unicode="E" horiz-adv-x="579" 
d="M-1 0l161 700h469l-30 -134h-278l-35 -149h202l-30 -126h-201l-37 -161h299l-30 -130h-490z" />
    <glyph glyph-name="F" unicode="F" horiz-adv-x="563" 
d="M-1 0l161 700h476l-31 -134h-284l-39 -167h222l-28 -128h-223l-62 -271h-192z" />
    <glyph glyph-name="G" unicode="G" horiz-adv-x="683" 
d="M359 -9q-145 0 -232 67.5t-87 208.5q0 87 28 166t80 141t134 98.5t182 36.5q137 0 220 -52l-29 -127h-75q-48 43 -127 43q-56 0 -99.5 -29.5t-68.5 -77t-37.5 -100.5t-12.5 -107q0 -141 131 -141q35 0 59 8l30 131h-83l26 116h266l-77 -337q-90 -45 -228 -45z" />
    <glyph glyph-name="H" unicode="H" horiz-adv-x="713" 
d="M-1 0l161 700h192l-64 -276h215l63 276h192l-161 -700h-192l67 288h-216l-65 -288h-192z" />
    <glyph glyph-name="I" unicode="I" horiz-adv-x="313" 
d="M2 0l161 700h193l-161 -700h-193z" />
    <glyph glyph-name="J" unicode="J" horiz-adv-x="486" 
d="M150 -9q-118 0 -180 51l28 121h68q28 -34 79 -34q68 0 85 72l114 499h193l-120 -521q-44 -188 -267 -188z" />
    <glyph glyph-name="K" unicode="K" horiz-adv-x="688" 
d="M-1 0l161 700h192l-69 -299l285 299h170v-43l-255 -254l137 -360v-43h-184l-106 279l-96 -90l-43 -189h-192z" />
    <glyph glyph-name="L" unicode="L" horiz-adv-x="550" 
d="M-1 0l161 700h192l-131 -568h268l-30 -132h-460z" />
    <glyph glyph-name="M" unicode="M" horiz-adv-x="867" 
d="M-1 0l161 700h241l31 -415h3l220 415h258l-161 -700h-187l112 489h-3l-262 -489h-110l-35 489h-3l-112 -489h-153z" />
    <glyph glyph-name="N" unicode="N" horiz-adv-x="703" 
d="M-1 0l161 700h206l128 -407h3l94 407h158l-161 -700h-176l-147 461h-3l-106 -461h-157z" />
    <glyph glyph-name="O" unicode="O" horiz-adv-x="744" 
d="M355 122q48 0 86 30t60 76t33 95.5t11 95.5q0 69 -28.5 113t-91.5 44q-64 0 -109.5 -53t-63.5 -118t-18 -127q0 -70 29.5 -113t91.5 -43zM347 -9q-138 0 -222.5 79t-84.5 214q0 112 46 208t137 157t208 61q142 0 225 -82t83 -215q0 -81 -27 -156t-75.5 -134.5t-124 -95.5
t-165.5 -36z" />
    <glyph glyph-name="P" unicode="P" horiz-adv-x="622" 
d="M-1 0l161 700h231q255 0 255 -199q0 -128 -84.5 -193.5t-238.5 -65.5h-77l-55 -242h-192zM273 366h60q129 0 129 134q0 71 -87 71h-55z" />
    <glyph glyph-name="Q" unicode="Q" horiz-adv-x="744" 
d="M605 -119l-287 90q-138 43 -208 116.5t-70 196.5q0 112 46 208t137 157t208 61q142 0 225 -81.5t83 -212.5q0 -134 -62.5 -229.5t-176.5 -131.5v-3l199 -31l-32 -140h-62zM357 119q48 0 86 30t59 77t32 97t11 96q0 69 -28.5 113t-91.5 44q-64 0 -109.5 -53t-63.5 -118
t-18 -127q0 -159 123 -159z" />
    <glyph glyph-name="R" unicode="R" horiz-adv-x="655" 
d="M414 0l-98 261h-65l-60 -261h-192l161 700h239q254 0 254 -201q0 -76 -43 -131t-118 -83l98 -240v-45h-176zM277 381h68q60 0 91.5 30.5t31.5 86.5q0 71 -87 71h-60z" />
    <glyph glyph-name="S" unicode="S" horiz-adv-x="553" 
d="M231 -9q-156 0 -242 72l27 122h73q52 -61 147 -61q103 0 103 77q0 29 -23 43.5t-87 37.5q-77 27 -115.5 71t-38.5 118q0 115 74.5 177t200.5 62q134 0 223 -66l-28 -118h-71q-54 51 -134 51q-40 0 -65 -17t-25 -52q0 -29 20.5 -43.5t83.5 -37.5q86 -28 128 -72t42 -118
q0 -117 -78.5 -181.5t-214.5 -64.5z" />
    <glyph glyph-name="T" unicode="T" horiz-adv-x="591" 
d="M140 0l131 567h-177l31 133h544l-30 -133h-176l-131 -567h-192z" />
    <glyph glyph-name="U" unicode="U" horiz-adv-x="686" 
d="M323 -8q-149 0 -223 75t-39 223l94 410h192l-100 -434q-31 -136 93 -136q56 0 87 29t46 96l103 445h159l-105 -455q-29 -125 -102 -189t-205 -64z" />
    <glyph glyph-name="V" unicode="V" horiz-adv-x="668" 
d="M177 0l-67 655v45h187l37 -482h2l254 482h154v-45l-364 -655h-203z" />
    <glyph glyph-name="W" unicode="W" horiz-adv-x="946" 
d="M126 0l-13 655v45h184l-1 -461h2l207 461h152l3 -461h2l198 461h159v-45l-306 -655h-201l1 411h-2l-184 -411h-201z" />
    <glyph glyph-name="X" unicode="X" horiz-adv-x="679" 
d="M-20 0v47l255 316l-110 290v47h186l81 -231l171 231h159v-47l-236 -296l118 -310v-47h-187l-89 251l-190 -251h-158z" />
    <glyph glyph-name="Y" unicode="Y" horiz-adv-x="624" 
d="M163 0l62 270l-120 383v47h179l77 -268h3l189 268h151v-47l-290 -397l-59 -256h-192z" />
    <glyph glyph-name="Z" unicode="Z" horiz-adv-x="578" 
d="M-30 0l32 139l393 424v4h-272l31 133h494l-34 -144l-393 -421v-4h295l-29 -131h-517z" />
    <glyph glyph-name="bracketleft" unicode="[" horiz-adv-x="345" 
d="M-8 -49l183 790h255l-27 -115h-92l-130 -560h93l-27 -115h-255z" />
    <glyph glyph-name="backslash" unicode="\" horiz-adv-x="376" 
d="M189 -49l-90 755v35h130l91 -755v-35h-131z" />
    <glyph glyph-name="bracketright" unicode="]" horiz-adv-x="345" 
d="M-43 -49l27 115h92l130 560h-93l27 115h255l-183 -790h-255z" />
    <glyph glyph-name="asciicircum" unicode="^" horiz-adv-x="438" 
d="M66 451v38l182 211h130l95 -211v-38h-131l-51 110h-3l-97 -110h-125z" />
    <glyph glyph-name="underscore" unicode="_" horiz-adv-x="382" 
d="M-96 -162l25 109h386l-26 -109h-385z" />
    <glyph glyph-name="grave" unicode="`" 
d="M226 561l-92 99v43h162l39 -109v-33h-109z" />
    <glyph glyph-name="a" unicode="a" horiz-adv-x="538" 
d="M362 0q-63 0 -80 54q-58 -61 -139 -61q-64 0 -103.5 36.5t-39.5 101.5q0 90 63 136.5t171 46.5q48 0 88 -11l3 11q23 94 -66 94q-69 0 -120 -28h-56l29 121q83 34 190 34q122 0 175.5 -55t27.5 -169l-72 -311h-71zM218 98q35 0 64 27l21 93q-24 7 -51 7q-40 0 -61 -21
t-21 -56q0 -50 48 -50z" />
    <glyph glyph-name="b" unicode="b" horiz-adv-x="602" 
d="M-10 0l160 700h107q40 0 52.5 -18.5t-0.5 -75.5l-32 -141q67 70 157 70q65 0 107 -46.5t42 -141.5q0 -158 -75 -256.5t-201 -98.5q-97 0 -145 64q-42 -56 -100 -56h-72zM338 404q-35 0 -82 -30l-56 -244q25 -25 66 -25q65 0 100 62.5t35 158.5q0 78 -63 78z" />
    <glyph glyph-name="c" unicode="c" horiz-adv-x="498" 
d="M270 -8q-123 0 -185 58t-62 159q0 145 94 235.5t236 90.5q102 0 163 -43l-26 -112h-64q-24 28 -74 28q-67 0 -108.5 -56t-41.5 -138q0 -100 91 -100q51 0 92 30h64l-27 -115q-57 -37 -152 -37z" />
    <glyph glyph-name="d" unicode="d" horiz-adv-x="602" 
d="M428 0q-79 0 -89 67q-59 -76 -151 -76q-74 0 -121 47t-47 146q0 146 77.5 248t196.5 102q83 0 128 -52l50 218h106q40 0 52.5 -18.5t-0.5 -75.5l-139 -606h-63zM269 111q37 0 74 26v1l56 243q-27 23 -64 23q-62 0 -98 -60.5t-36 -148.5q0 -84 68 -84z" />
    <glyph glyph-name="e" unicode="e" horiz-adv-x="540" 
d="M266 -8q-119 0 -182.5 55.5t-62.5 162.5q0 137 81.5 231t215.5 94q97 0 151.5 -50.5t53.5 -145.5q-2 -60 -18 -115h-309v-11q0 -54 23.5 -78t72.5 -24q66 0 124 33h57l-25 -111q-75 -41 -182 -41zM307 424q-70 0 -99 -106h155q4 16 4 35q0 71 -60 71z" />
    <glyph glyph-name="f" unicode="f" horiz-adv-x="352" 
d="M15 0l91 411h-57l26 116h57l7 31q18 81 68 117.5t134 36.5q59 0 97 -15l-22 -100h-27q-34 0 -50 -9t-22 -36l-6 -25h83l-26 -116h-83l-93 -411h-177z" />
    <glyph glyph-name="g" unicode="g" horiz-adv-x="598" 
d="M192 -169q-129 0 -208 43l28 118h56q39 -37 116 -37q116 0 136 87l12 51q-60 -65 -151 -65q-68 0 -113.5 44.5t-45.5 132.5q0 139 77.5 234.5t197.5 95.5q87 0 140 -65q41 57 105 57h69l-113 -491q-25 -111 -100.5 -158t-205.5 -47zM263 142q44 0 88 33l49 214
q-27 25 -65 25q-64 0 -98 -60.5t-34 -139.5q0 -72 60 -72z" />
    <glyph glyph-name="h" unicode="h" horiz-adv-x="596" 
d="M-10 0l160 700h107q40 0 51.5 -17t-0.5 -77l-34 -146q89 75 187 75q65 0 97.5 -47t13.5 -132l-82 -356h-125q-29 0 -37.5 15.5t0.5 57.5l59 263q13 58 -38 58q-41 0 -97 -31l-82 -363h-180z" />
    <glyph glyph-name="i" unicode="i" horiz-adv-x="280" 
d="M-8 0l121 527h101q44 0 55.5 -18.5t-0.5 -82.5l-97 -426h-180zM217 560q-38 0 -62.5 21.5t-24.5 55.5q0 39 28.5 65t69.5 26q39 0 63.5 -22.5t24.5 -56.5q0 -39 -29 -64t-70 -25z" />
    <glyph glyph-name="j" unicode="j" horiz-adv-x="279" 
d="M-19 -169q-60 0 -101 16l22 95h19q35 0 48.5 10t20.5 42l123 533h101q44 0 55.5 -18.5t-0.5 -82.5l-101 -441q-19 -84 -64.5 -119t-122.5 -35zM217 560q-38 0 -62.5 21.5t-24.5 55.5q0 39 28.5 65t69.5 26q39 0 63.5 -22.5t24.5 -56.5q0 -39 -29 -64t-70 -25z" />
    <glyph glyph-name="k" unicode="k" horiz-adv-x="562" 
d="M-10 0l160 700h107q40 0 51.5 -17t-0.5 -77l-60 -264l181 185h155v-43l-190 -181l111 -260v-43h-169l-82 195l-51 -49l-33 -146h-180z" />
    <glyph glyph-name="l" unicode="l" horiz-adv-x="281" 
d="M-9 0l160 700h106q40 0 52.5 -18.5t-0.5 -75.5l-139 -606h-179z" />
    <glyph glyph-name="m" unicode="m" horiz-adv-x="879" 
d="M-10 0l121 527h71q43 0 63 -19t21 -59q91 86 182 86q43 0 72 -22.5t38 -64.5q95 87 192 87q64 0 95 -47t11 -132l-83 -356h-125q-29 0 -37.5 15.5t0.5 57.5l59 263q13 58 -32 58q-33 0 -82 -29l-2 -9l-83 -356h-178l76 336q12 58 -33 58q-33 0 -82 -29l-84 -365h-180z
" />
    <glyph glyph-name="n" unicode="n" horiz-adv-x="595" 
d="M-10 0l121 527h72q81 0 82 -75q93 83 196 83q65 0 97.5 -47t13.5 -132l-82 -356h-125q-29 0 -37.5 15.5t0.5 57.5l59 263q13 58 -38 58q-41 0 -97 -31l-82 -363h-180z" />
    <glyph glyph-name="o" unicode="o" horiz-adv-x="586" 
d="M272 109q54 0 85.5 62.5t31.5 144.5q0 97 -71 97q-53 0 -86.5 -64.5t-33.5 -144.5q0 -95 74 -95zM265 -7q-114 0 -178 59.5t-64 163.5q0 139 85 229t216 90q113 0 177.5 -61t64.5 -166q0 -140 -83 -227.5t-218 -87.5z" />
    <glyph glyph-name="p" unicode="p" horiz-adv-x="599" 
d="M-47 -162l158 689h72q79 0 84 -71q72 79 162 79q69 0 111.5 -47.5t42.5 -145.5q0 -152 -74.5 -244.5t-198.5 -92.5q-81 0 -128 42l-48 -209h-181zM338 404q-37 0 -81 -28v-2l-54 -234q29 -22 66 -22q63 0 97.5 57t34.5 151q0 78 -63 78z" />
    <glyph glyph-name="q" unicode="q" horiz-adv-x="602" 
d="M275 -162l51 226q-56 -59 -143 -59q-69 0 -116 44t-47 136q0 149 79.5 249t201.5 100q87 0 137 -64q41 57 106 57h69l-158 -689h-180zM263 119q42 0 83 32l54 235q-27 21 -67 21q-60 0 -96 -62.5t-36 -147.5q0 -78 62 -78z" />
    <glyph glyph-name="r" unicode="r" horiz-adv-x="414" 
d="M-10 0l121 527h71q89 0 83 -92q72 96 156 96q12 0 30 -4l-33 -150h-19q-87 0 -152 -40l-77 -337h-180z" />
    <glyph glyph-name="s" unicode="s" horiz-adv-x="456" 
d="M178 -7q-126 0 -199 50l25 110h62q37 -42 113 -42q71 0 71 41q0 16 -14.5 25t-56.5 23q-71 23 -104 55.5t-33 92.5q0 89 62 137t167 48q110 0 183 -47l-24 -104h-60q-40 36 -103 36q-64 0 -64 -40q0 -15 14.5 -24.5t56.5 -22.5q71 -21 106.5 -52.5t35.5 -92.5
q0 -91 -63.5 -142t-174.5 -51z" />
    <glyph glyph-name="t" unicode="t" horiz-adv-x="367" 
d="M191 -9q-88 0 -125.5 44t-16.5 134l56 242h-54l26 116h54l31 134h180l-31 -134h88l-26 -116h-89l-55 -238q-8 -34 4 -49.5t49 -15.5h25l-23 -104q-43 -13 -93 -13z" />
    <glyph glyph-name="u" unicode="u" horiz-adv-x="593" 
d="M415 0q-83 0 -90 74q-92 -83 -184 -83q-70 0 -103.5 46.5t-12.5 133.5l82 356h125q29 0 37.5 -15.5t-0.5 -58.5l-60 -267q-13 -59 37 -59q40 0 90 29l85 371h179l-120 -527h-65z" />
    <glyph glyph-name="v" unicode="v" horiz-adv-x="549" 
d="M132 0l-69 486v41h173l33 -325h2l161 325h150v-41l-271 -486h-179z" />
    <glyph glyph-name="w" unicode="w" horiz-adv-x="803" 
d="M102 0l-37 485v42h172l12 -304h2l142 304h132l23 -304h2l134 304h145v-42l-241 -485h-158l-27 291h-2l-139 -291h-160z" />
    <glyph glyph-name="x" unicode="x" horiz-adv-x="558" 
d="M-29 0v42l196 236l-87 207v42h174l55 -151l117 151h147v-42l-178 -213l99 -230v-42h-174l-66 166l-131 -166h-152z" />
    <glyph glyph-name="y" unicode="y" horiz-adv-x="549" 
d="M20 -162v41l117 171l-74 436v41h171l39 -287h2l157 287h150v-41l-394 -648h-168z" />
    <glyph glyph-name="z" unicode="z" horiz-adv-x="495" 
d="M-35 0l28 121l291 282h-214l29 124h429l-28 -124l-293 -281h223l-28 -122h-437z" />
    <glyph glyph-name="braceleft" unicode="{" horiz-adv-x="378" 
d="M199 -49q-81 0 -117 39.5t-19 111.5l32 138q6 26 -4 42t-36 16h-25l27 115h22q55 0 68 55l32 137q16 71 54.5 103.5t114.5 32.5h115l-28 -115h-63q-25 0 -33 -30l-30 -135q-21 -88 -119 -109v-3q88 -22 66 -115l-32 -138q-6 -30 22 -30h60l-26 -115h-81z" />
    <glyph glyph-name="bar" unicode="|" horiz-adv-x="270" 
d="M90 -49l1 790h134v-790h-135z" />
    <glyph glyph-name="braceright" unicode="}" horiz-adv-x="378" 
d="M-43 -49l28 115h63q25 0 33 30l32 144q21 87 119 108v3q-87 23 -67 116l31 129q6 30 -22 30h-60l26 115h81q81 0 117 -39.5t19 -111.5l-30 -129q-13 -58 39 -58h26l-27 -115h-22q-56 0 -69 -55l-33 -146q-16 -71 -54.5 -103.5t-114.5 -32.5h-115z" />
    <glyph glyph-name="asciitilde" unicode="~" horiz-adv-x="408" 
d="M20 206v53q14 53 48.5 85t82.5 32q29 0 70.5 -12.5t50.5 -12.5q27 0 38 28h92v-53q-15 -54 -49 -85.5t-82 -31.5q-27 0 -69.5 13t-52.5 13q-26 0 -37 -29h-92z" />
    <glyph glyph-name="exclamdown" unicode="&#xa1;" horiz-adv-x="289" 
d="M242 413l-53 -377l-24 -105h-192l25 105l130 377h114zM215 638q39 0 64.5 -25.5t25.5 -61.5q0 -40 -29 -67.5t-71 -27.5q-39 0 -64.5 25.5t-25.5 61.5q0 40 29.5 67.5t70.5 27.5z" />
    <glyph glyph-name="cent" unicode="&#xa2;" horiz-adv-x="522" 
d="M189 -103l23 100q-93 15 -141 71.5t-48 143.5q0 137 90 226t226 96l14 61h89l-15 -64q66 -10 108 -39l-26 -112h-64q-16 18 -47 25l-67 -290q39 5 73 29h64l-27 -115q-50 -32 -141 -36l-21 -96h-90zM202 218q0 -67 42 -91l63 271q-50 -19 -77.5 -68t-27.5 -112z" />
    <glyph glyph-name="sterling" unicode="&#xa3;" horiz-adv-x="535" 
d="M34 289l27 117h43q-4 66 7 113q22 92 95.5 141t187.5 49q129 0 198 -57l-28 -125h-72q-39 39 -100 39q-36 0 -64 -19.5t-37 -58.5q-7 -33 -9 -82h163l-27 -117h-142q-1 -14 -7 -42q-15 -63 -63 -103h295l-33 -144h-502l28 120q38 13 67 43.5t39 71.5q5 24 7 54h-73z" />
    <glyph glyph-name="yen" unicode="&#xa5;" horiz-adv-x="608" 
d="M60 292l22 95h119l-89 266v47h177l68 -245h3l168 245h153v-47l-201 -266h120l-22 -95h-165l-11 -47h165l-22 -94h-165l-34 -151h-189l35 151h-165l22 94h164l11 47h-164z" />
    <glyph glyph-name="brokenbar" unicode="&#xa6;" horiz-adv-x="269" 
d="M90 -49v357h135v-357h-135zM90 390v351h135v-351h-135z" />
    <glyph glyph-name="section" unicode="&#xa7;" horiz-adv-x="552" 
d="M199 -132q-121 0 -204 55l25 107h61q44 -46 120 -46q74 0 74 42q0 21 -20 35.5t-75 34.5q-83 28 -121 66.5t-38 97.5q0 116 133 154q-34 38 -34 100q0 87 66 141t177 54q109 0 187 -46l-24 -108h-64q-44 36 -103 36q-37 0 -58 -12t-21 -33t17 -34t69 -30
q93 -31 135 -68.5t42 -103.5q0 -53 -33.5 -94.5t-101.5 -60.5q37 -39 37 -94q0 -90 -64.5 -141.5t-181.5 -51.5zM255 238q29 -10 70 -28q57 17 57 59q0 23 -19 37.5t-65 31.5q-37 13 -62 24q-57 -13 -57 -58q0 -20 16.5 -35t59.5 -31z" />
    <glyph glyph-name="dieresis" unicode="&#xa8;" 
d="M182 560q-35 0 -57 21t-22 53q0 37 25.5 61t64.5 24q35 0 57.5 -21t22.5 -53q0 -38 -26.5 -61.5t-64.5 -23.5zM386 560q-35 0 -56.5 20.5t-21.5 53.5q0 37 25.5 61t63.5 24q36 0 58 -21t22 -53q0 -38 -26.5 -61.5t-64.5 -23.5z" />
    <glyph glyph-name="copyright" unicode="&#xa9;" horiz-adv-x="783" 
d="M425 151q-98 0 -152.5 52t-54.5 147q0 93 59 147.5t155 54.5q71 0 125 -27v-95h-52q-26 24 -67 24q-38 0 -59 -26.5t-21 -78.5q0 -102 78 -102q44 0 74 26h48v-86q-54 -36 -133 -36zM413 48q126 0 210.5 81.5t84.5 220.5t-84.5 220.5t-210.5 81.5t-210.5 -81.5
t-84.5 -220.5t84.5 -220.5t210.5 -81.5zM413 -8q-151 0 -256.5 96t-105.5 262t105.5 262t256.5 96t256.5 -96t105.5 -262t-105.5 -262t-256.5 -96z" />
    <glyph glyph-name="ordfeminine" unicode="&#xaa;" horiz-adv-x="464" 
d="M435 258h-61q-62 0 -74 50q-47 -56 -125 -56q-57 0 -89.5 31.5t-32.5 85.5q0 78 55 116t148 38q37 0 80 -9l1 5q9 41 -5.5 58.5t-53.5 17.5q-62 0 -106 -25h-49l25 108q73 30 170 30q105 0 152 -47t25 -144zM243 345q28 0 59 24l17 71q-26 6 -47 6q-32 0 -49.5 -16
t-17.5 -45q0 -40 38 -40z" />
    <glyph glyph-name="guillemotleft" unicode="&#xab;" horiz-adv-x="534" 
d="M109 40l-81 199l14 63l149 178h136v-36l-153 -186v-3l69 -179v-36h-134zM329 40l-78 196l14 63l150 181h136v-36l-154 -189v-3l67 -176v-36h-135z" />
    <glyph glyph-name="registered" unicode="&#xae;" horiz-adv-x="386" 
d="M255 350q-76 0 -130.5 48.5t-54.5 130.5t54 130.5t131 48.5q75 0 130 -48.5t55 -130.5q0 -81 -55 -130t-130 -49zM255 389q61 0 100 36.5t39 103.5t-39 103.5t-100 36.5t-100.5 -36.5t-39.5 -103.5t39.5 -103.5t100.5 -36.5zM284 441l-29 60h-14v-60h-62v183h82
q77 0 77 -62q0 -31 -26 -47l30 -55v-19h-58zM240 540h15q22 0 22 23q0 22 -22 22h-15v-45z" />
    <glyph glyph-name="macron" unicode="&#xaf;" 
d="M140 579l26 108h271l-26 -108h-271z" />
    <glyph glyph-name="degree" unicode="&#xb0;" horiz-adv-x="352" 
d="M240 493q29 0 48 20t19 52q0 29 -17 47t-45 18q-29 0 -47 -19.5t-18 -52.5q0 -29 16 -47t44 -18zM237 417q-62 0 -104 39.5t-42 101.5q0 67 46.5 107.5t110.5 40.5q62 0 104 -39.5t42 -100.5q0 -67 -46.5 -108t-110.5 -41z" />
    <glyph glyph-name="two.superior" unicode="&#xb2;" horiz-adv-x="350" 
d="M36 308l23 99l122 87q73 50 73 82q0 30 -37 30q-35 0 -64 -23h-50l22 96q53 28 125 28q70 0 107.5 -28.5t37.5 -80.5q0 -45 -29.5 -80t-96.5 -77l-55 -35h141l-23 -98h-296z" />
    <glyph glyph-name="three.superior" unicode="&#xb3;" horiz-adv-x="345" 
d="M188 301q-90 0 -147 44l18 78h47q31 -31 72 -31q23 0 37.5 10.5t14.5 27.5q0 35 -47 35h-36l18 79h43q23 0 36.5 9.5t13.5 26.5q0 33 -46 33q-28 0 -60 -17h-47l19 85q50 26 118 26q67 0 105.5 -26t38.5 -79q0 -78 -94 -98v-2q67 -17 67 -81q0 -55 -46.5 -87.5
t-124.5 -32.5z" />
    <glyph glyph-name="acute" unicode="&#xb4;" 
d="M220 561v33l52 109h166v-43l-118 -99h-100z" />
    <glyph glyph-name="paragraph" unicode="&#xb6;" horiz-adv-x="592" 
d="M164 -91l90 391h-2q-78 0 -128 45.5t-50 124.5q0 83 43.5 136.5t107.5 73.5t147 20h267l-183 -791h-114l157 677h-64l-157 -677h-114z" />
    <glyph glyph-name="periodcentered" unicode="&#xb7;" horiz-adv-x="222" 
d="M113 204q-39 0 -64 25t-25 62q0 40 29.5 67t70.5 27q39 0 64.5 -25.5t25.5 -61.5q0 -39 -29.5 -66.5t-71.5 -27.5z" />
    <glyph glyph-name="cedilla" unicode="&#xb8;" 
d="M114 -175q-56 0 -90 20l14 59h31q9 -13 32 -13q28 0 28 17q0 16 -27 16h-23l18 76h76l-6 -24q33 -3 49.5 -20t16.5 -44q0 -46 -34 -66.5t-85 -20.5z" />
    <glyph glyph-name="one.superior" unicode="&#xb9;" horiz-adv-x="278" 
d="M107 308l60 263l-54 -25h-24l23 100l122 54h102l-91 -392h-138z" />
    <glyph glyph-name="ordmasculine" unicode="&#xba;" horiz-adv-x="528" 
d="M294 356q40 0 70.5 49t30.5 119q0 36 -16 57t-47 21q-40 0 -70.5 -48.5t-30.5 -122.5q0 -75 63 -75zM287 251q-97 0 -155.5 52t-58.5 139q0 117 75.5 191.5t188.5 74.5q95 0 155.5 -50.5t60.5 -140.5q0 -117 -76.5 -191.5t-189.5 -74.5z" />
    <glyph glyph-name="guillemotright" unicode="&#xbb;" horiz-adv-x="534" 
d="M-12 40v36l154 189v3l-67 176v36h135l78 -196l-14 -63l-150 -181h-136zM212 40v36l153 186v3l-69 179v36h134l81 -199l-14 -63l-149 -178h-136z" />
    <glyph glyph-name="onequarter" unicode="&#xbc;" horiz-adv-x="775" 
d="M527 0l18 78h-173l23 95l225 219h128l-53 -231h39l-19 -83h-39l-18 -78h-131zM484 160h84l25 106h-2l-107 -104v-2zM106 308l60 263l-55 -25h-23l23 100l121 54h103l-91 -392h-138zM24 -34l629 763h119l-629 -763h-119z" />
    <glyph glyph-name="onehalf" unicode="&#xbd;" horiz-adv-x="816" 
d="M430 0l23 98l123 87q37 26 55 45t18 38q0 29 -38 29q-37 0 -64 -22h-50l22 95q53 28 125 28q70 0 108 -28t38 -80q0 -45 -30.5 -80.5t-97.5 -76.5l-56 -35h143l-23 -98h-296zM106 308l60 263l-55 -25h-23l23 100l121 54h103l-91 -392h-138zM23 -34l629 763h119l-629 -763
h-119z" />
    <glyph glyph-name="threequarters" unicode="&#xbe;" horiz-adv-x="813" 
d="M191 301q-92 0 -147 44l18 78h47q28 -31 71 -31q23 0 36.5 10.5t13.5 27.5q0 35 -46 35h-35l19 79h41q49 0 49 36q0 33 -43 33q-30 0 -60 -17h-47l19 85q50 26 117 26t106 -26t39 -79q0 -78 -95 -98v-2q68 -17 68 -81q0 -55 -46.5 -87.5t-124.5 -32.5zM565 0l18 78h-173
l23 95l225 219h128l-53 -231h39l-19 -83h-39l-18 -78h-131zM522 160h84l25 106h-2l-107 -104v-2zM72 -34l629 763h119l-629 -763h-119z" />
    <glyph glyph-name="questiondown" unicode="&#xbf;" horiz-adv-x="466" 
d="M387 413q-3 -66 -24.5 -107.5t-77.5 -81.5q-8 -6 -28.5 -20t-30.5 -21.5t-23 -20t-18.5 -26t-5.5 -28.5q0 -50 65 -50q53 0 100 31h68l-29 -126q-73 -42 -181 -42q-96 0 -153.5 41t-57.5 124q0 123 152 203q55 30 81.5 56t33.5 68h129zM350 638q38 0 63.5 -25t25.5 -62
q0 -40 -29 -67.5t-70 -27.5q-39 0 -64.5 25.5t-25.5 61.5q0 40 29.5 67.5t70.5 27.5z" />
    <glyph glyph-name="Agrave" unicode="&#xc0;" horiz-adv-x="692" 
d="M-34 0v45l366 655h212l80 -655v-45h-189l-14 163h-222l-84 -163h-149zM499 723h-108l-90 93v42h162l36 -102v-33zM388 528l-122 -235h144l-20 235h-2z" />
    <glyph glyph-name="Aacute" unicode="&#xc1;" horiz-adv-x="692" 
d="M-34 0v45l366 655h212l80 -655v-45h-189l-14 163h-222l-84 -163h-149zM378 723v33l50 102h165v-42l-115 -93h-100zM388 528l-122 -235h144l-20 235h-2z" />
    <glyph glyph-name="Acircumflex" unicode="&#xc2;" horiz-adv-x="692" 
d="M-34 0v45l366 655h212l80 -655v-45h-189l-14 163h-222l-84 -163h-149zM284 723v38l109 100h118l74 -100v-38h-99l-47 39l-64 -39h-91zM388 528l-122 -235h144l-20 235h-2z" />
    <glyph glyph-name="Atilde" unicode="&#xc3;" horiz-adv-x="692" 
d="M-34 0v45l366 655h212l80 -655v-45h-189l-14 163h-222l-84 -163h-149zM497 723q-28 0 -62 13t-43 13q-25 0 -34 -26h-87v40q33 103 120 103q26 0 60.5 -12t43.5 -12q22 0 33 24h87v-40q-33 -103 -118 -103zM388 528l-122 -235h144l-20 235h-2z" />
    <glyph glyph-name="Adieresis" unicode="&#xc4;" horiz-adv-x="692" 
d="M-34 0v45l366 655h212l80 -655v-45h-189l-14 163h-222l-84 -163h-149zM550 722q-35 0 -57 21t-22 53q0 37 26 61t64 24q35 0 57.5 -21t22.5 -53q0 -38 -26.5 -61.5t-64.5 -23.5zM345 722q-35 0 -56.5 20.5t-21.5 53.5q0 37 25.5 61t63.5 24q36 0 58 -21t22 -53
q0 -38 -26.5 -61.5t-64.5 -23.5zM388 528l-122 -235h144l-20 235h-2z" />
    <glyph glyph-name="Aring" unicode="&#xc5;" horiz-adv-x="692" 
d="M-34 0v45l366 655h212l80 -655v-45h-189l-14 163h-222l-84 -163h-149zM456 723q-44 0 -73 26t-29 69q0 48 33.5 78.5t78.5 30.5q43 0 72.5 -26.5t29.5 -70.5q0 -48 -33 -77.5t-79 -29.5zM388 528l-122 -235h144l-20 235h-2zM458 789q17 0 27 11t10 29q0 15 -9 23.5
t-23 8.5q-16 0 -25.5 -11t-9.5 -30q0 -31 30 -31z" />
    <glyph glyph-name="AE" unicode="&#xc6;" horiz-adv-x="952" 
d="M-44 0v45l457 655h590l-31 -134h-276l-35 -149h200l-29 -126h-200l-37 -161h297l-30 -130h-488l38 165h-199l-111 -165h-146zM483 566l-183 -272h141l63 272h-21z" />
    <glyph glyph-name="Ccedilla" unicode="&#xc7;" horiz-adv-x="634" 
d="M353 -9q-5 0 -16 0.5t-17 0.5l-3 -16q33 -3 49.5 -20t16.5 -44q0 -46 -34 -66.5t-85 -20.5q-56 0 -90 20l14 59h31q9 -13 32 -13q28 0 28 17q0 16 -27 16h-23l18 78q-97 23 -152 91.5t-55 182.5q0 84 28 161t79.5 138t132.5 97.5t180 36.5q127 0 207 -50l-29 -125h-73
q-42 39 -114 39q-56 0 -99.5 -29.5t-67.5 -76t-36 -96.5t-12 -99q0 -149 137 -149q69 0 129 44h75l-30 -133q-80 -43 -194 -43z" />
    <glyph glyph-name="Egrave" unicode="&#xc8;" horiz-adv-x="579" 
d="M458 723h-108l-90 93v42h162l36 -102v-33zM-1 0l161 700h469l-30 -134h-278l-35 -149h202l-30 -126h-201l-37 -161h299l-30 -130h-490z" />
    <glyph glyph-name="Eacute" unicode="&#xc9;" horiz-adv-x="579" 
d="M337 723v33l50 102h165v-42l-115 -93h-100zM-1 0l161 700h469l-30 -134h-278l-35 -149h202l-30 -126h-201l-37 -161h299l-30 -130h-490z" />
    <glyph glyph-name="Ecircumflex" unicode="&#xca;" horiz-adv-x="579" 
d="M-1 0l161 700h469l-30 -134h-278l-35 -149h202l-30 -126h-201l-37 -161h299l-30 -130h-490zM245 723v38l109 100h118l74 -100v-38h-99l-47 39l-64 -39h-91z" />
    <glyph glyph-name="Edieresis" unicode="&#xcb;" horiz-adv-x="579" 
d="M304 722q-35 0 -56.5 20.5t-21.5 53.5q0 37 25.5 61t63.5 24q36 0 58 -21t22 -53q0 -38 -26.5 -61.5t-64.5 -23.5zM509 722q-35 0 -57 21t-22 53q0 37 26 61t64 24q35 0 57.5 -21t22.5 -53q0 -38 -26.5 -61.5t-64.5 -23.5zM-1 0l161 700h469l-30 -134h-278l-35 -149h202
l-30 -126h-201l-37 -161h299l-30 -130h-490z" />
    <glyph glyph-name="Igrave" unicode="&#xcc;" horiz-adv-x="313" 
d="M2 0l161 700h193l-161 -700h-193zM325 723h-108l-90 93v42h162l36 -102v-33z" />
    <glyph glyph-name="Iacute" unicode="&#xcd;" horiz-adv-x="313" 
d="M2 0l161 700h193l-161 -700h-193zM204 723v33l50 102h165v-42l-115 -93h-100z" />
    <glyph glyph-name="Icircumflex" unicode="&#xce;" horiz-adv-x="313" 
d="M2 0l161 700h193l-161 -700h-193zM112 723v38l109 100h118l74 -100v-38h-99l-47 39l-64 -39h-91z" />
    <glyph glyph-name="Idieresis" unicode="&#xcf;" horiz-adv-x="313" 
d="M2 0l161 700h193l-161 -700h-193zM171 722q-35 0 -56.5 20.5t-21.5 53.5q0 37 25.5 61t63.5 24q36 0 58 -21t22 -53q0 -38 -26.5 -61.5t-64.5 -23.5zM376 722q-35 0 -57 21t-22 53q0 37 26 61t64 24q35 0 57.5 -21t22.5 -53q0 -38 -26.5 -61.5t-64.5 -23.5z" />
    <glyph glyph-name="Eth" unicode="&#xd0;" horiz-adv-x="715" 
d="M10 288l28 123h56l67 289h239q147 0 227.5 -74t80.5 -210q0 -113 -44.5 -205.5t-139.5 -151.5t-226 -59h-298l66 288h-56zM221 129h79q57 0 100 26.5t67 70t35 92t11 100.5q0 149 -128 149h-63l-36 -156h125l-28 -123h-126z" />
    <glyph glyph-name="Ntilde" unicode="&#xd1;" horiz-adv-x="703" 
d="M536 723q-28 0 -62 13t-43 13q-25 0 -34 -26h-87v40q33 103 120 103q26 0 60.5 -12t43.5 -12q22 0 33 24h87v-40q-33 -103 -118 -103zM-1 0l161 700h206l128 -407h3l94 407h158l-161 -700h-176l-147 461h-3l-106 -461h-157z" />
    <glyph glyph-name="Ograve" unicode="&#xd2;" horiz-adv-x="744" 
d="M512 723h-108l-90 93v42h162l36 -102v-33zM355 122q48 0 86 30t60 76t33 95.5t11 95.5q0 69 -28.5 113t-91.5 44q-64 0 -109.5 -53t-63.5 -118t-18 -127q0 -70 29.5 -113t91.5 -43zM347 -9q-138 0 -222.5 79t-84.5 214q0 112 46 208t137 157t208 61q142 0 225 -82
t83 -215q0 -81 -27 -156t-75.5 -134.5t-124 -95.5t-165.5 -36z" />
    <glyph glyph-name="Oacute" unicode="&#xd3;" horiz-adv-x="744" 
d="M391 723v33l50 102h165v-42l-115 -93h-100zM355 122q48 0 86 30t60 76t33 95.5t11 95.5q0 69 -28.5 113t-91.5 44q-64 0 -109.5 -53t-63.5 -118t-18 -127q0 -70 29.5 -113t91.5 -43zM347 -9q-138 0 -222.5 79t-84.5 214q0 112 46 208t137 157t208 61q142 0 225 -82
t83 -215q0 -81 -27 -156t-75.5 -134.5t-124 -95.5t-165.5 -36z" />
    <glyph glyph-name="Ocircumflex" unicode="&#xd4;" horiz-adv-x="744" 
d="M355 122q48 0 86 30t60 76t33 95.5t11 95.5q0 69 -28.5 113t-91.5 44q-64 0 -109.5 -53t-63.5 -118t-18 -127q0 -70 29.5 -113t91.5 -43zM347 -9q-138 0 -222.5 79t-84.5 214q0 112 46 208t137 157t208 61q142 0 225 -82t83 -215q0 -81 -27 -156t-75.5 -134.5t-124 -95.5
t-165.5 -36zM299 723v38l109 100h118l74 -100v-38h-99l-47 39l-64 -39h-91z" />
    <glyph glyph-name="Otilde" unicode="&#xd5;" horiz-adv-x="744" 
d="M516 723q-28 0 -62 13t-43 13q-25 0 -34 -26h-87v40q33 103 120 103q26 0 60.5 -12t43.5 -12q22 0 33 24h87v-40q-33 -103 -118 -103zM355 122q48 0 86 30t60 76t33 95.5t11 95.5q0 69 -28.5 113t-91.5 44q-64 0 -109.5 -53t-63.5 -118t-18 -127q0 -70 29.5 -113
t91.5 -43zM347 -9q-138 0 -222.5 79t-84.5 214q0 112 46 208t137 157t208 61q142 0 225 -82t83 -215q0 -81 -27 -156t-75.5 -134.5t-124 -95.5t-165.5 -36z" />
    <glyph glyph-name="Odieresis" unicode="&#xd6;" horiz-adv-x="744" 
d="M358 722q-35 0 -56.5 20.5t-21.5 53.5q0 37 25.5 61t63.5 24q36 0 58 -21t22 -53q0 -38 -26.5 -61.5t-64.5 -23.5zM563 722q-35 0 -57 21t-22 53q0 37 26 61t64 24q35 0 57.5 -21t22.5 -53q0 -38 -26.5 -61.5t-64.5 -23.5zM355 122q48 0 86 30t60 76t33 95.5t11 95.5
q0 69 -28.5 113t-91.5 44q-64 0 -109.5 -53t-63.5 -118t-18 -127q0 -70 29.5 -113t91.5 -43zM347 -9q-138 0 -222.5 79t-84.5 214q0 112 46 208t137 157t208 61q142 0 225 -82t83 -215q0 -81 -27 -156t-75.5 -134.5t-124 -95.5t-165.5 -36z" />
    <glyph glyph-name="multiply" unicode="&#xd7;" horiz-adv-x="527" 
d="M102 108l-78 95l166 139l-109 140l110 90l107 -139l166 139l77 -95l-166 -139l108 -139l-108 -91l-108 139z" />
    <glyph glyph-name="Oslash" unicode="&#xd8;" horiz-adv-x="744" 
d="M347 -9q-101 0 -176 47l-55 -60h-96v28l83 91q-63 79 -63 187q0 112 46 208t137 157t208 61q104 0 182 -51l50 55h96v-28l-80 -88q60 -79 60 -185q0 -109 -45 -204t-136 -156.5t-211 -61.5zM229 279q0 -28 2 -41l279 307q-32 32 -85 32q-49 0 -88 -30.5t-61.5 -77.5
t-34.5 -96.5t-12 -93.5zM357 119q48 0 87 30t61 76.5t33.5 96.5t11.5 96q0 12 -2 36l-278 -306q32 -29 87 -29z" />
    <glyph glyph-name="Ugrave" unicode="&#xd9;" horiz-adv-x="686" 
d="M521 723h-108l-90 93v42h162l36 -102v-33zM323 -8q-149 0 -223 75t-39 223l94 410h192l-100 -434q-31 -136 93 -136q56 0 87 29t46 96l103 445h159l-105 -455q-29 -125 -102 -189t-205 -64z" />
    <glyph glyph-name="Uacute" unicode="&#xda;" horiz-adv-x="686" 
d="M400 723v33l50 102h165v-42l-115 -93h-100zM323 -8q-149 0 -223 75t-39 223l94 410h192l-100 -434q-31 -136 93 -136q56 0 87 29t46 96l103 445h159l-105 -455q-29 -125 -102 -189t-205 -64z" />
    <glyph glyph-name="Ucircumflex" unicode="&#xdb;" horiz-adv-x="686" 
d="M323 -8q-149 0 -223 75t-39 223l94 410h192l-100 -434q-31 -136 93 -136q56 0 87 29t46 96l103 445h159l-105 -455q-29 -125 -102 -189t-205 -64zM308 723v38l109 100h118l74 -100v-38h-99l-47 39l-64 -39h-91z" />
    <glyph glyph-name="Udieresis" unicode="&#xdc;" horiz-adv-x="686" 
d="M352 722q-35 0 -56.5 20.5t-21.5 53.5q0 37 25.5 61t63.5 24q36 0 58 -21t22 -53q0 -38 -26.5 -61.5t-64.5 -23.5zM557 722q-35 0 -57 21t-22 53q0 37 26 61t64 24q35 0 57.5 -21t22.5 -53q0 -38 -26.5 -61.5t-64.5 -23.5zM323 -8q-149 0 -223 75t-39 223l94 410h192
l-100 -434q-31 -136 93 -136q56 0 87 29t46 96l103 445h159l-105 -455q-29 -125 -102 -189t-205 -64z" />
    <glyph glyph-name="Yacute" unicode="&#xdd;" horiz-adv-x="624" 
d="M163 0l62 270l-120 383v47h179l77 -268h3l189 268h151v-47l-290 -397l-59 -256h-192zM364 723v33l50 102h165v-42l-115 -93h-100z" />
    <glyph glyph-name="Thorn" unicode="&#xde;" horiz-adv-x="618" 
d="M-1 0l161 700h192l-29 -122h44q252 0 252 -193q0 -122 -84.5 -186.5t-237.5 -64.5h-76l-30 -134h-192zM247 254h58q63 0 96 33t33 97q0 65 -87 65h-54z" />
    <glyph glyph-name="germandbls" unicode="&#xdf;" horiz-adv-x="641" 
d="M396 -7q-98 0 -160 41l24 107h58q23 -29 74 -29q26 0 39 9.5t13 23.5q0 4 -0.5 7t-2.5 6.5t-3.5 5.5t-5.5 5t-6 5t-8 5.5t-9 5t-11 6t-12 6.5q-47 25 -68.5 53t-21.5 67q0 40 22 71.5t67 71.5q39 34 52.5 50t13.5 35q0 20 -16.5 32t-47.5 12q-47 0 -70.5 -23.5
t-32.5 -65.5l-114 -500h-180l116 506q46 205 294 205q105 0 167 -40t62 -106q0 -46 -22 -76t-72 -63q-63 -41 -73 -56q-5 -8 -5 -15q0 -11 10 -19.5t43 -27.5q52 -31 75.5 -63.5t23.5 -80.5q0 -79 -56 -125t-157 -46z" />
    <glyph glyph-name="agrave" unicode="&#xe0;" horiz-adv-x="538" 
d="M362 0q-63 0 -80 54q-58 -61 -139 -61q-64 0 -103.5 36.5t-39.5 101.5q0 90 63 136.5t171 46.5q48 0 88 -11l3 11q23 94 -66 94q-69 0 -120 -28h-56l29 121q83 34 190 34q122 0 175.5 -55t27.5 -169l-72 -311h-71zM267 561l-92 99v43h162l39 -109v-33h-109zM218 98
q35 0 64 27l21 93q-24 7 -51 7q-40 0 -61 -21t-21 -56q0 -50 48 -50z" />
    <glyph glyph-name="aacute" unicode="&#xe1;" horiz-adv-x="538" 
d="M362 0q-63 0 -80 54q-58 -61 -139 -61q-64 0 -103.5 36.5t-39.5 101.5q0 90 63 136.5t171 46.5q48 0 88 -11l3 11q23 94 -66 94q-69 0 -120 -28h-56l29 121q83 34 190 34q122 0 175.5 -55t27.5 -169l-72 -311h-71zM261 561v33l52 109h166v-43l-118 -99h-100zM218 98
q35 0 64 27l21 93q-24 7 -51 7q-40 0 -61 -21t-21 -56q0 -50 48 -50z" />
    <glyph glyph-name="acircumflex" unicode="&#xe2;" horiz-adv-x="538" 
d="M362 0q-63 0 -80 54q-58 -61 -139 -61q-64 0 -103.5 36.5t-39.5 101.5q0 90 63 136.5t171 46.5q48 0 88 -11l3 11q23 94 -66 94q-69 0 -120 -28h-56l29 121q83 34 190 34q122 0 175.5 -55t27.5 -169l-72 -311h-71zM171 561v38l109 104h118l74 -104v-38h-99l-47 42
l-64 -42h-91zM218 98q35 0 64 27l21 93q-24 7 -51 7q-40 0 -61 -21t-21 -56q0 -50 48 -50z" />
    <glyph glyph-name="atilde" unicode="&#xe3;" horiz-adv-x="538" 
d="M362 0q-63 0 -80 54q-58 -61 -139 -61q-64 0 -103.5 36.5t-39.5 101.5q0 90 63 136.5t171 46.5q48 0 88 -11l3 11q23 94 -66 94q-69 0 -120 -28h-56l29 121q83 34 190 34q122 0 175.5 -55t27.5 -169l-72 -311h-71zM387 562q-28 0 -62 13t-43 13q-23 0 -34 -26h-86v40
q32 104 119 104q27 0 61.5 -12t43.5 -12q22 0 33 24h87v-40q-33 -104 -119 -104zM218 98q35 0 64 27l21 93q-24 7 -51 7q-40 0 -61 -21t-21 -56q0 -50 48 -50z" />
    <glyph glyph-name="adieresis" unicode="&#xe4;" horiz-adv-x="538" 
d="M362 0q-63 0 -80 54q-58 -61 -139 -61q-64 0 -103.5 36.5t-39.5 101.5q0 90 63 136.5t171 46.5q48 0 88 -11l3 11q23 94 -66 94q-69 0 -120 -28h-56l29 121q83 34 190 34q122 0 175.5 -55t27.5 -169l-72 -311h-71zM227 560q-35 0 -57 21t-22 53q0 37 25.5 61t64.5 24
q35 0 57.5 -21t22.5 -53q0 -38 -26.5 -61.5t-64.5 -23.5zM431 560q-35 0 -56.5 20.5t-21.5 53.5q0 37 25.5 61t63.5 24q36 0 58 -21t22 -53q0 -38 -26.5 -61.5t-64.5 -23.5zM218 98q35 0 64 27l21 93q-24 7 -51 7q-40 0 -61 -21t-21 -56q0 -50 48 -50z" />
    <glyph glyph-name="aring" unicode="&#xe5;" horiz-adv-x="538" 
d="M362 0q-63 0 -80 54q-58 -61 -139 -61q-64 0 -103.5 36.5t-39.5 101.5q0 90 63 136.5t171 46.5q48 0 88 -11l3 11q23 94 -66 94q-69 0 -120 -28h-56l29 121q83 34 190 34q122 0 175.5 -55t27.5 -169l-72 -311h-71zM334 562q-43 0 -72 26t-29 69q0 48 33 78.5t79 30.5
q43 0 72 -26.5t29 -70.5q0 -48 -33 -77.5t-79 -29.5zM218 98q35 0 64 27l21 93q-24 7 -51 7q-40 0 -61 -21t-21 -56q0 -50 48 -50zM337 628q16 0 26.5 11t10.5 29q0 32 -33 32q-16 0 -25.5 -11t-9.5 -30q0 -31 31 -31z" />
    <glyph glyph-name="ae" unicode="&#xe6;" horiz-adv-x="828" 
d="M155 -7q-74 0 -115.5 36t-41.5 104q0 89 63.5 136t171.5 47h91q20 92 -67 92q-67 0 -120 -28h-55l28 121q83 34 185 34q109 0 151 -54q73 54 165 54q96 1 149 -49.5t52 -146.5q0 -55 -18 -115h-309v-11q0 -54 23 -78t73 -24q67 0 123 33h58l-25 -109q-80 -43 -182 -43
q-145 0 -206 84q-71 -83 -194 -83zM316 149q-6 28 -6 62v13h-58q-41 0 -62.5 -20.5t-21.5 -55.5q0 -50 50 -50q54 0 98 51zM600 424q-37 0 -63.5 -28.5t-39.5 -78.5h155q4 22 4 36q0 71 -56 71z" />
    <glyph glyph-name="ccedilla" unicode="&#xe7;" horiz-adv-x="498" 
d="M270 -8h-17l-4 -16q33 -3 49.5 -20t16.5 -44q0 -46 -34 -66.5t-85 -20.5q-56 0 -90 20l14 59h31q9 -13 32 -13q28 0 28 17q0 16 -27 16h-23l18 78q-78 19 -117 72.5t-39 134.5q0 145 94 235.5t236 90.5q102 0 163 -43l-26 -112h-64q-24 28 -74 28q-67 0 -108.5 -56
t-41.5 -138q0 -100 91 -100q51 0 92 30h64l-27 -115q-57 -37 -152 -37z" />
    <glyph glyph-name="egrave" unicode="&#xe8;" horiz-adv-x="540" 
d="M266 -8q-119 0 -182.5 55.5t-62.5 162.5q0 137 81.5 231t215.5 94q97 0 151.5 -50.5t53.5 -145.5q-2 -60 -18 -115h-309v-11q0 -54 23.5 -78t72.5 -24q66 0 124 33h57l-25 -111q-75 -41 -182 -41zM270 561l-92 99v43h162l39 -109v-33h-109zM307 424q-70 0 -99 -106h155
q4 16 4 35q0 71 -60 71z" />
    <glyph glyph-name="eacute" unicode="&#xe9;" horiz-adv-x="540" 
d="M266 -8q-119 0 -182.5 55.5t-62.5 162.5q0 137 81.5 231t215.5 94q97 0 151.5 -50.5t53.5 -145.5q-2 -60 -18 -115h-309v-11q0 -54 23.5 -78t72.5 -24q66 0 124 33h57l-25 -111q-75 -41 -182 -41zM264 561v33l52 109h166v-43l-118 -99h-100zM307 424q-70 0 -99 -106h155
q4 16 4 35q0 71 -60 71z" />
    <glyph glyph-name="ecircumflex" unicode="&#xea;" horiz-adv-x="540" 
d="M266 -8q-119 0 -182.5 55.5t-62.5 162.5q0 137 81.5 231t215.5 94q97 0 151.5 -50.5t53.5 -145.5q-2 -60 -18 -115h-309v-11q0 -54 23.5 -78t72.5 -24q66 0 124 33h57l-25 -111q-75 -41 -182 -41zM176 561v38l109 104h118l74 -104v-38h-99l-47 42l-64 -42h-91zM307 424
q-70 0 -99 -106h155q4 16 4 35q0 71 -60 71z" />
    <glyph glyph-name="edieresis" unicode="&#xeb;" horiz-adv-x="540" 
d="M266 -8q-119 0 -182.5 55.5t-62.5 162.5q0 137 81.5 231t215.5 94q97 0 151.5 -50.5t53.5 -145.5q-2 -60 -18 -115h-309v-11q0 -54 23.5 -78t72.5 -24q66 0 124 33h57l-25 -111q-75 -41 -182 -41zM230 560q-35 0 -57 21t-22 53q0 37 25.5 61t64.5 24q35 0 57.5 -21
t22.5 -53q0 -38 -26.5 -61.5t-64.5 -23.5zM434 560q-35 0 -56.5 20.5t-21.5 53.5q0 37 25.5 61t63.5 24q36 0 58 -21t22 -53q0 -38 -26.5 -61.5t-64.5 -23.5zM307 424q-70 0 -99 -106h155q4 16 4 35q0 71 -60 71z" />
    <glyph glyph-name="igrave" unicode="&#xec;" horiz-adv-x="280" 
d="M-8 0l121 527h101q44 0 55.5 -18.5t-0.5 -82.5l-97 -426h-180zM148 561l-92 99v43h162l39 -109v-33h-109z" />
    <glyph glyph-name="iacute" unicode="&#xed;" horiz-adv-x="280" 
d="M143 561v33l52 109h166v-43l-118 -99h-100zM-8 0l121 527h101q44 0 55.5 -18.5t-0.5 -82.5l-97 -426h-180z" />
    <glyph glyph-name="icircumflex" unicode="&#xee;" horiz-adv-x="280" 
d="M53 561v38l109 104h118l74 -104v-38h-99l-47 42l-64 -42h-91zM-8 0l121 527h101q44 0 55.5 -18.5t-0.5 -82.5l-97 -426h-180z" />
    <glyph glyph-name="idieresis" unicode="&#xef;" horiz-adv-x="280" 
d="M109 560q-35 0 -57 21t-22 53q0 37 25.5 61t64.5 24q35 0 57.5 -21t22.5 -53q0 -38 -26.5 -61.5t-64.5 -23.5zM313 560q-35 0 -56.5 20.5t-21.5 53.5q0 37 25.5 61t63.5 24q36 0 58 -21t22 -53q0 -38 -26.5 -61.5t-64.5 -23.5zM-8 0l121 527h101q44 0 55.5 -18.5
t-0.5 -82.5l-97 -426h-180z" />
    <glyph glyph-name="eth" unicode="&#xf0;" horiz-adv-x="592" 
d="M193 522v28l45 34q-22 9 -47 15l24 101h70q47 -13 73 -24l30 23h95v-27l-49 -38q138 -99 138 -288q0 -167 -83 -260t-221 -93q-115 0 -180 59.5t-65 162.5q0 125 73 206.5t170 81.5q75 0 114 -45q-17 47 -65 84l-26 -20h-96zM272 108q54 0 85.5 60.5t31.5 135.5
q0 43 -20 66t-55 23q-54 0 -85 -58t-31 -135q0 -92 74 -92z" />
    <glyph glyph-name="ntilde" unicode="&#xf1;" horiz-adv-x="595" 
d="M-10 0l121 527h72q81 0 82 -75q93 83 196 83q65 0 97.5 -47t13.5 -132l-82 -356h-125q-29 0 -37.5 15.5t0.5 57.5l59 263q13 58 -38 58q-41 0 -97 -31l-82 -363h-180zM422 562q-28 0 -62 13t-43 13q-23 0 -34 -26h-86v40q32 104 119 104q27 0 61.5 -12t43.5 -12
q22 0 33 24h87v-40q-33 -104 -119 -104z" />
    <glyph glyph-name="ograve" unicode="&#xf2;" horiz-adv-x="586" 
d="M272 109q54 0 85.5 62.5t31.5 144.5q0 97 -71 97q-53 0 -86.5 -64.5t-33.5 -144.5q0 -95 74 -95zM265 -7q-114 0 -178 59.5t-64 163.5q0 139 85 229t216 90q113 0 177.5 -61t64.5 -166q0 -140 -83 -227.5t-218 -87.5zM288 561l-92 99v43h162l39 -109v-33h-109z" />
    <glyph glyph-name="oacute" unicode="&#xf3;" horiz-adv-x="586" 
d="M283 561v33l52 109h166v-43l-118 -99h-100zM272 109q54 0 85.5 62.5t31.5 144.5q0 97 -71 97q-53 0 -86.5 -64.5t-33.5 -144.5q0 -95 74 -95zM265 -7q-114 0 -178 59.5t-64 163.5q0 139 85 229t216 90q113 0 177.5 -61t64.5 -166q0 -140 -83 -227.5t-218 -87.5z" />
    <glyph glyph-name="ocircumflex" unicode="&#xf4;" horiz-adv-x="586" 
d="M193 561v38l109 104h118l74 -104v-38h-99l-47 42l-64 -42h-91zM272 109q54 0 85.5 62.5t31.5 144.5q0 97 -71 97q-53 0 -86.5 -64.5t-33.5 -144.5q0 -95 74 -95zM265 -7q-114 0 -178 59.5t-64 163.5q0 139 85 229t216 90q113 0 177.5 -61t64.5 -166q0 -140 -83 -227.5
t-218 -87.5z" />
    <glyph glyph-name="otilde" unicode="&#xf5;" horiz-adv-x="586" 
d="M272 109q54 0 85.5 62.5t31.5 144.5q0 97 -71 97q-53 0 -86.5 -64.5t-33.5 -144.5q0 -95 74 -95zM265 -7q-114 0 -178 59.5t-64 163.5q0 139 85 229t216 90q113 0 177.5 -61t64.5 -166q0 -140 -83 -227.5t-218 -87.5zM409 562q-28 0 -62 13t-43 13q-23 0 -34 -26h-86v40
q32 104 119 104q27 0 61.5 -12t43.5 -12q22 0 33 24h87v-40q-33 -104 -119 -104z" />
    <glyph glyph-name="odieresis" unicode="&#xf6;" horiz-adv-x="586" 
d="M249 560q-35 0 -57 21t-22 53q0 37 25.5 61t64.5 24q35 0 57.5 -21t22.5 -53q0 -38 -26.5 -61.5t-64.5 -23.5zM453 560q-35 0 -56.5 20.5t-21.5 53.5q0 37 25.5 61t63.5 24q36 0 58 -21t22 -53q0 -38 -26.5 -61.5t-64.5 -23.5zM272 109q54 0 85.5 62.5t31.5 144.5
q0 97 -71 97q-53 0 -86.5 -64.5t-33.5 -144.5q0 -95 74 -95zM265 -7q-114 0 -178 59.5t-64 163.5q0 139 85 229t216 90q113 0 177.5 -61t64.5 -166q0 -140 -83 -227.5t-218 -87.5z" />
    <glyph glyph-name="divide" unicode="&#xf7;" horiz-adv-x="522" 
d="M242 63q-38 0 -63 24.5t-25 61.5q0 40 28.5 67t69.5 27q38 0 63.5 -25t25.5 -61q0 -40 -29.5 -67t-69.5 -27zM22 276l32 139h486l-32 -139h-486zM308 448q-38 0 -63 25t-25 61q0 39 29 66.5t69 27.5q39 0 64.5 -25t25.5 -61q0 -39 -29.5 -66.5t-70.5 -27.5z" />
    <glyph glyph-name="oslash" unicode="&#xf8;" horiz-adv-x="586" 
d="M265 -7q-78 0 -133 28l-42 -47h-81v26l62 69q-48 55 -48 147q0 139 85 229t216 90q81 0 137 -32l37 42h81v-26l-59 -66q46 -57 46 -145q0 -140 -83 -227.5t-218 -87.5zM191 207v-4l177 197q-19 16 -48 16q-57 0 -93 -65t-36 -144zM271 106q57 0 91 63t34 143v3l-175 -195
q18 -14 50 -14z" />
    <glyph glyph-name="ugrave" unicode="&#xf9;" horiz-adv-x="593" 
d="M415 0q-83 0 -90 74q-92 -83 -184 -83q-70 0 -103.5 46.5t-12.5 133.5l82 356h125q29 0 37.5 -15.5t-0.5 -58.5l-60 -267q-13 -59 37 -59q40 0 90 29l85 371h179l-120 -527h-65zM303 561l-92 99v43h162l39 -109v-33h-109z" />
    <glyph glyph-name="uacute" unicode="&#xfa;" horiz-adv-x="593" 
d="M415 0q-83 0 -90 74q-92 -83 -184 -83q-70 0 -103.5 46.5t-12.5 133.5l82 356h125q29 0 37.5 -15.5t-0.5 -58.5l-60 -267q-13 -59 37 -59q40 0 90 29l85 371h179l-120 -527h-65zM298 561v33l52 109h166v-43l-118 -99h-100z" />
    <glyph glyph-name="ucircumflex" unicode="&#xfb;" horiz-adv-x="593" 
d="M415 0q-83 0 -90 74q-92 -83 -184 -83q-70 0 -103.5 46.5t-12.5 133.5l82 356h125q29 0 37.5 -15.5t-0.5 -58.5l-60 -267q-13 -59 37 -59q40 0 90 29l85 371h179l-120 -527h-65zM205 561v38l109 104h118l74 -104v-38h-99l-47 42l-64 -42h-91z" />
    <glyph glyph-name="udieresis" unicode="&#xfc;" horiz-adv-x="593" 
d="M415 0q-83 0 -90 74q-92 -83 -184 -83q-70 0 -103.5 46.5t-12.5 133.5l82 356h125q29 0 37.5 -15.5t-0.5 -58.5l-60 -267q-13 -59 37 -59q40 0 90 29l85 371h179l-120 -527h-65zM261 560q-35 0 -57 21t-22 53q0 37 25.5 61t64.5 24q35 0 57.5 -21t22.5 -53
q0 -38 -26.5 -61.5t-64.5 -23.5zM465 560q-35 0 -56.5 20.5t-21.5 53.5q0 37 25.5 61t63.5 24q36 0 58 -21t22 -53q0 -38 -26.5 -61.5t-64.5 -23.5z" />
    <glyph glyph-name="yacute" unicode="&#xfd;" horiz-adv-x="549" 
d="M20 -162v41l117 171l-74 436v41h171l39 -287h2l157 287h150v-41l-394 -648h-168zM277 561v33l52 109h166v-43l-118 -99h-100z" />
    <glyph glyph-name="thorn" unicode="&#xfe;" horiz-adv-x="599" 
d="M-47 -162l197 862h107q40 0 52.5 -18.5t-0.5 -75.5l-32 -141q67 70 160 70q63 0 104.5 -47.5t41.5 -144.5q0 -154 -74.5 -248t-199.5 -94q-84 0 -128 46l-47 -209h-181zM338 404q-38 0 -82 -30l-54 -235q27 -23 67 -23q63 0 97.5 58t34.5 152q0 78 -63 78z" />
    <glyph glyph-name="ydieresis" unicode="&#xff;" horiz-adv-x="549" 
d="M20 -162v41l117 171l-74 436v41h171l39 -287h2l157 287h150v-41l-394 -648h-168zM237 560q-35 0 -57 21t-22 53q0 37 25.5 61t64.5 24q35 0 57.5 -21t22.5 -53q0 -38 -26.5 -61.5t-64.5 -23.5zM441 560q-35 0 -56.5 20.5t-21.5 53.5q0 37 25.5 61t63.5 24q36 0 58 -21
t22 -53q0 -38 -26.5 -61.5t-64.5 -23.5z" />
    <glyph glyph-name="Amacron" unicode="&#x100;" horiz-adv-x="692" 
d="M-34 0v45l366 655h212l80 -655v-45h-189l-14 163h-222l-84 -163h-149zM306 733l26 109h270l-25 -109h-271zM388 528l-122 -235h144l-20 235h-2z" />
    <glyph glyph-name="amacron" unicode="&#x101;" horiz-adv-x="538" 
d="M362 0q-63 0 -80 54q-58 -61 -139 -61q-64 0 -103.5 36.5t-39.5 101.5q0 90 63 136.5t171 46.5q48 0 88 -11l3 11q23 94 -66 94q-69 0 -120 -28h-56l29 121q83 34 190 34q122 0 175.5 -55t27.5 -169l-72 -311h-71zM190 579l26 108h271l-26 -108h-271zM218 98q35 0 64 27
l21 93q-24 7 -51 7q-40 0 -61 -21t-21 -56q0 -50 48 -50z" />
    <glyph glyph-name="Abreve" unicode="&#x102;" horiz-adv-x="692" 
d="M-34 0v45l366 655h212l80 -655v-45h-189l-14 163h-222l-84 -163h-149zM449 723q-60 0 -96 29t-42 70v39h105q0 -13 9.5 -22.5t28.5 -9.5q37 0 46 32h101v-39q-15 -43 -54 -71t-98 -28zM388 528l-122 -235h144l-20 235h-2z" />
    <glyph glyph-name="abreve" unicode="&#x103;" horiz-adv-x="538" 
d="M362 0q-63 0 -80 54q-58 -61 -139 -61q-64 0 -103.5 36.5t-39.5 101.5q0 90 63 136.5t171 46.5q48 0 88 -11l3 11q23 94 -66 94q-69 0 -120 -28h-56l29 121q83 34 190 34q122 0 175.5 -55t27.5 -169l-72 -311h-71zM330 561q-61 0 -96 30t-41 76v40h106q0 -38 37 -38
q38 0 47 38h100v-40q-15 -46 -54 -76t-99 -30zM218 98q35 0 64 27l21 93q-24 7 -51 7q-40 0 -61 -21t-21 -56q0 -50 48 -50z" />
    <glyph glyph-name="Aogonek" unicode="&#x104;" horiz-adv-x="692" 
d="M523 -167q-47 0 -73.5 20t-26.5 54q0 61 84 93h-72l-14 163h-222l-84 -163h-149v45l366 655h212l80 -655v-45q-62 -24 -62 -53q0 -21 35 -21h17l-18 -76q-32 -17 -73 -17zM388 528l-122 -235h144l-20 235h-2z" />
    <glyph glyph-name="aogonek" unicode="&#x105;" horiz-adv-x="538" 
d="M342 -167q-47 0 -73.5 20t-26.5 54q0 64 91 97q-39 11 -51 50q-58 -61 -139 -61q-64 0 -103.5 36.5t-39.5 101.5q0 90 63 136.5t171 46.5q48 0 88 -11l3 11q23 94 -66 94q-69 0 -120 -28h-56l29 121q83 34 190 34q122 0 175.5 -55t27.5 -169l-72 -311q-52 -27 -52 -53
q0 -21 35 -21h17l-18 -76q-32 -17 -73 -17zM218 98q35 0 64 27l21 93q-24 7 -51 7q-40 0 -61 -21t-21 -56q0 -50 48 -50z" />
    <glyph glyph-name="Cacute" unicode="&#x106;" horiz-adv-x="634" 
d="M353 -9q-142 0 -227.5 70.5t-85.5 214.5q0 84 28 161t79.5 138t132.5 97.5t180 36.5q127 0 207 -50l-29 -125h-73q-42 39 -114 39q-56 0 -99.5 -29.5t-67.5 -76t-36 -96.5t-12 -99q0 -149 137 -149q69 0 129 44h75l-30 -133q-80 -43 -194 -43zM382 723v33l50 102h165v-42
l-115 -93h-100z" />
    <glyph glyph-name="cacute" unicode="&#x107;" horiz-adv-x="498" 
d="M279 561v33l52 109h166v-43l-118 -99h-100zM270 -8q-123 0 -185 58t-62 159q0 145 94 235.5t236 90.5q102 0 163 -43l-26 -112h-64q-24 28 -74 28q-67 0 -108.5 -56t-41.5 -138q0 -100 91 -100q51 0 92 30h64l-27 -115q-57 -37 -152 -37z" />
    <glyph glyph-name="Ccircumflex" unicode="&#x108;" horiz-adv-x="634" 
d="M353 -9q-142 0 -227.5 70.5t-85.5 214.5q0 84 28 161t79.5 138t132.5 97.5t180 36.5q127 0 207 -50l-29 -125h-73q-42 39 -114 39q-56 0 -99.5 -29.5t-67.5 -76t-36 -96.5t-12 -99q0 -149 137 -149q69 0 129 44h75l-30 -133q-80 -43 -194 -43zM290 723v38l109 100h118
l74 -100v-38h-99l-47 39l-64 -39h-91z" />
    <glyph glyph-name="ccircumflex" unicode="&#x109;" horiz-adv-x="498" 
d="M189 561v38l109 104h118l74 -104v-38h-99l-47 42l-64 -42h-91zM270 -8q-123 0 -185 58t-62 159q0 145 94 235.5t236 90.5q102 0 163 -43l-26 -112h-64q-24 28 -74 28q-67 0 -108.5 -56t-41.5 -138q0 -100 91 -100q51 0 92 30h64l-27 -115q-57 -37 -152 -37z" />
    <glyph glyph-name="Cdotaccent" unicode="&#x10a;" horiz-adv-x="634" 
d="M451 723q-39 0 -63 22t-24 56q0 39 28 64.5t70 25.5q39 0 63.5 -22t24.5 -56q0 -40 -29 -65t-70 -25zM353 -9q-142 0 -227.5 70.5t-85.5 214.5q0 84 28 161t79.5 138t132.5 97.5t180 36.5q127 0 207 -50l-29 -125h-73q-42 39 -114 39q-56 0 -99.5 -29.5t-67.5 -76
t-36 -96.5t-12 -99q0 -149 137 -149q69 0 129 44h75l-30 -133q-80 -43 -194 -43z" />
    <glyph glyph-name="cdotaccent" unicode="&#x10b;" horiz-adv-x="498" 
d="M270 -8q-123 0 -185 58t-62 159q0 145 94 235.5t236 90.5q102 0 163 -43l-26 -112h-64q-24 28 -74 28q-67 0 -108.5 -56t-41.5 -138q0 -100 91 -100q51 0 92 30h64l-27 -115q-57 -37 -152 -37zM347 560q-38 0 -62 21.5t-24 55.5q0 39 28 65t70 26q39 0 63 -22.5t24 -56.5
q0 -39 -28.5 -64t-70.5 -25z" />
    <glyph glyph-name="Ccaron" unicode="&#x10c;" horiz-adv-x="634" 
d="M353 -9q-142 0 -227.5 70.5t-85.5 214.5q0 84 28 161t79.5 138t132.5 97.5t180 36.5q127 0 207 -50l-29 -125h-73q-42 39 -114 39q-56 0 -99.5 -29.5t-67.5 -76t-36 -96.5t-12 -99q0 -149 137 -149q69 0 129 44h75l-30 -133q-80 -43 -194 -43zM614 861v-38l-109 -100
h-117l-75 100v38h99l47 -39l64 39h91z" />
    <glyph glyph-name="ccaron" unicode="&#x10d;" horiz-adv-x="498" 
d="M281 561l-74 104v38h99l46 -42l65 42h91v-38l-109 -104h-118zM270 -8q-123 0 -185 58t-62 159q0 145 94 235.5t236 90.5q102 0 163 -43l-26 -112h-64q-24 28 -74 28q-67 0 -108.5 -56t-41.5 -138q0 -100 91 -100q51 0 92 30h64l-27 -115q-57 -37 -152 -37z" />
    <glyph glyph-name="Dcaron" unicode="&#x10e;" horiz-adv-x="712" 
d="M588 861v-38l-109 -100h-117l-75 100v38h99l47 -39l64 39h91zM220 129h79q57 0 100 26.5t67 70t35 92t11 100.5q0 149 -128 149h-63zM-1 0l161 700h239q147 0 227.5 -74t80.5 -210q0 -113 -44.5 -205.5t-139.5 -151.5t-226 -59h-298z" />
    <glyph glyph-name="dcaron" unicode="&#x10f;" horiz-adv-x="602" 
d="M428 0q-79 0 -89 67q-59 -76 -151 -76q-74 0 -121 47t-47 146q0 146 77.5 248t196.5 102q83 0 128 -52l50 218h106q40 0 52.5 -18.5t-0.5 -75.5l-139 -606h-63zM269 111q37 0 74 26v1l56 243q-27 23 -64 23q-62 0 -98 -60.5t-36 -148.5q0 -84 68 -84zM651 562l32 138h129
l-3 -43l-77 -95h-81z" />
    <glyph glyph-name="Dcroat" unicode="&#x110;" horiz-adv-x="715" 
d="M10 288l28 123h56l67 289h239q147 0 227.5 -74t80.5 -210q0 -113 -44.5 -205.5t-139.5 -151.5t-226 -59h-298l66 288h-56zM221 129h79q57 0 100 26.5t67 70t35 92t11 100.5q0 149 -128 149h-63l-36 -156h125l-28 -123h-126z" />
    <glyph glyph-name="dcroat" unicode="&#x111;" horiz-adv-x="602" 
d="M428 0q-79 0 -89 67q-59 -76 -157 -76q-70 0 -116 47.5t-46 145.5q0 147 76.5 248.5t197.5 101.5q83 0 128 -52l17 77h-125l21 90h125l12 51h106q34 0 48.5 -11.5t12.5 -39.5h50l-20 -90h-49l-129 -559h-63zM265 111q39 0 78 26v1l56 243q-27 23 -64 23q-63 0 -98.5 -61
t-35.5 -152q0 -80 64 -80z" />
    <glyph glyph-name="Emacron" unicode="&#x112;" horiz-adv-x="579" 
d="M265 733l26 109h270l-25 -109h-271zM-1 0l161 700h469l-30 -134h-278l-35 -149h202l-30 -126h-201l-37 -161h299l-30 -130h-490z" />
    <glyph glyph-name="emacron" unicode="&#x113;" horiz-adv-x="540" 
d="M266 -8q-119 0 -182.5 55.5t-62.5 162.5q0 137 81.5 231t215.5 94q97 0 151.5 -50.5t53.5 -145.5q-2 -60 -18 -115h-309v-11q0 -54 23.5 -78t72.5 -24q66 0 124 33h57l-25 -111q-75 -41 -182 -41zM193 579l26 108h271l-26 -108h-271zM307 424q-70 0 -99 -106h155
q4 16 4 35q0 71 -60 71z" />
    <glyph glyph-name="Ebreve" unicode="&#x114;" horiz-adv-x="579" 
d="M403 723q-60 0 -96 29t-42 70v39h105q0 -13 9.5 -22.5t28.5 -9.5q37 0 46 32h101v-39q-15 -43 -54 -71t-98 -28zM-1 0l161 700h469l-30 -134h-278l-35 -149h202l-30 -126h-201l-37 -161h299l-30 -130h-490z" />
    <glyph glyph-name="ebreve" unicode="&#x115;" horiz-adv-x="540" 
d="M266 -8q-119 0 -182.5 55.5t-62.5 162.5q0 137 81.5 231t215.5 94q97 0 151.5 -50.5t53.5 -145.5q-2 -60 -18 -115h-309v-11q0 -54 23.5 -78t72.5 -24q66 0 124 33h57l-25 -111q-75 -41 -182 -41zM329 561q-61 0 -96 30t-41 76v40h106q0 -38 37 -38q38 0 47 38h100v-40
q-15 -46 -54 -76t-99 -30zM307 424q-70 0 -99 -106h155q4 16 4 35q0 71 -60 71z" />
    <glyph glyph-name="Edotaccent" unicode="&#x116;" horiz-adv-x="579" 
d="M406 723q-39 0 -63 22t-24 56q0 39 28 64.5t70 25.5q39 0 63.5 -22t24.5 -56q0 -40 -29 -65t-70 -25zM-1 0l161 700h469l-30 -134h-278l-35 -149h202l-30 -126h-201l-37 -161h299l-30 -130h-490z" />
    <glyph glyph-name="edotaccent" unicode="&#x117;" horiz-adv-x="540" 
d="M266 -8q-119 0 -182.5 55.5t-62.5 162.5q0 137 81.5 231t215.5 94q97 0 151.5 -50.5t53.5 -145.5q-2 -60 -18 -115h-309v-11q0 -54 23.5 -78t72.5 -24q66 0 124 33h57l-25 -111q-75 -41 -182 -41zM332 560q-38 0 -62 21.5t-24 55.5q0 39 28 65t70 26q39 0 63 -22.5
t24 -56.5q0 -39 -28.5 -64t-70.5 -25zM307 424q-70 0 -99 -106h155q4 16 4 35q0 71 -60 71z" />
    <glyph glyph-name="Eogonek" unicode="&#x118;" horiz-adv-x="579" 
d="M-1 0l161 700h469l-30 -134h-278l-35 -149h202l-30 -126h-201l-37 -161h299l-30 -130h-48q-46 -28 -46 -53q0 -21 34 -21h18l-18 -76q-32 -17 -73 -17q-47 0 -73.5 20t-26.5 54q0 61 84 93h-341z" />
    <glyph glyph-name="eogonek" unicode="&#x119;" horiz-adv-x="540" 
d="M473 144l-25 -111q-11 -6 -31.5 -15.5t-30.5 -15.5q-49 -28 -49 -55q0 -21 34 -21h17l-17 -76q-32 -17 -74 -17q-47 0 -73.5 20.5t-26.5 53.5q0 49 72 85h-5q-117 0 -180.5 56t-62.5 162q0 137 81.5 231t215.5 94q97 0 151.5 -50.5t53.5 -145.5q-2 -60 -18 -115h-309v-11
q0 -54 23.5 -78t72.5 -24q66 0 124 33h57zM307 424q-70 0 -99 -106h155q4 16 4 35q0 71 -60 71z" />
    <glyph glyph-name="Ecaron" unicode="&#x11a;" horiz-adv-x="579" 
d="M569 861v-38l-109 -100h-117l-75 100v38h99l47 -39l64 39h91zM-1 0l161 700h469l-30 -134h-278l-35 -149h202l-30 -126h-201l-37 -161h299l-30 -130h-490z" />
    <glyph glyph-name="ecaron" unicode="&#x11b;" horiz-adv-x="540" 
d="M266 -8q-119 0 -182.5 55.5t-62.5 162.5q0 137 81.5 231t215.5 94q97 0 151.5 -50.5t53.5 -145.5q-2 -60 -18 -115h-309v-11q0 -54 23.5 -78t72.5 -24q66 0 124 33h57l-25 -111q-75 -41 -182 -41zM266 561l-74 104v38h99l46 -42l65 42h91v-38l-109 -104h-118zM307 424
q-70 0 -99 -106h155q4 16 4 35q0 71 -60 71z" />
    <glyph glyph-name="Gcircumflex" unicode="&#x11c;" horiz-adv-x="683" 
d="M359 -9q-145 0 -232 67.5t-87 208.5q0 87 28 166t80 141t134 98.5t182 36.5q137 0 220 -52l-29 -127h-75q-48 43 -127 43q-56 0 -99.5 -29.5t-68.5 -77t-37.5 -100.5t-12.5 -107q0 -141 131 -141q35 0 59 8l30 131h-83l26 116h266l-77 -337q-90 -45 -228 -45zM313 723v38
l109 100h118l74 -100v-38h-99l-47 39l-64 -39h-91z" />
    <glyph glyph-name="gcircumflex" unicode="&#x11d;" horiz-adv-x="598" 
d="M192 -171q-126 0 -208 45l28 118h56q39 -37 116 -37q116 0 136 87l12 51q-60 -65 -151 -65q-68 0 -113.5 44.5t-45.5 132.5q0 139 77.5 234.5t197.5 95.5q87 0 140 -65q41 57 105 57h69l-113 -491q-25 -111 -101 -159t-205 -48zM263 142q44 0 88 33l49 214q-27 25 -65 25
q-64 0 -98 -60.5t-34 -139.5q0 -72 60 -72zM220 561v38l109 104h118l74 -104v-38h-99l-47 42l-64 -42h-91z" />
    <glyph glyph-name="Gbreve" unicode="&#x11e;" horiz-adv-x="683" 
d="M476 723q-60 0 -96 29t-42 70v39h105q0 -13 9.5 -22.5t28.5 -9.5q37 0 46 32h101v-39q-15 -43 -54 -71t-98 -28zM359 -9q-145 0 -232 67.5t-87 208.5q0 87 28 166t80 141t134 98.5t182 36.5q137 0 220 -52l-29 -127h-75q-48 43 -127 43q-56 0 -99.5 -29.5t-68.5 -77
t-37.5 -100.5t-12.5 -107q0 -141 131 -141q35 0 59 8l30 131h-83l26 116h266l-77 -337q-90 -45 -228 -45z" />
    <glyph glyph-name="gbreve" unicode="&#x11f;" horiz-adv-x="598" 
d="M192 -171q-126 0 -208 45l28 118h56q39 -37 116 -37q116 0 136 87l12 51q-60 -65 -151 -65q-68 0 -113.5 44.5t-45.5 132.5q0 139 77.5 234.5t197.5 95.5q87 0 140 -65q41 57 105 57h69l-113 -491q-25 -111 -101 -159t-205 -48zM263 142q44 0 88 33l49 214q-27 25 -65 25
q-64 0 -98 -60.5t-34 -139.5q0 -72 60 -72zM370 561q-61 0 -96 30t-41 76v40h106q0 -38 37 -38q38 0 47 38h100v-40q-15 -46 -54 -76t-99 -30z" />
    <glyph glyph-name="Gdotaccent" unicode="&#x120;" horiz-adv-x="683" 
d="M475 723q-39 0 -63 22t-24 56q0 39 28 64.5t70 25.5q39 0 63.5 -22t24.5 -56q0 -40 -29 -65t-70 -25zM359 -9q-145 0 -232 67.5t-87 208.5q0 87 28 166t80 141t134 98.5t182 36.5q137 0 220 -52l-29 -127h-75q-48 43 -127 43q-56 0 -99.5 -29.5t-68.5 -77t-37.5 -100.5
t-12.5 -107q0 -141 131 -141q35 0 59 8l30 131h-83l26 116h266l-77 -337q-90 -45 -228 -45z" />
    <glyph glyph-name="gdotaccent" unicode="&#x121;" horiz-adv-x="598" 
d="M192 -171q-126 0 -208 45l28 118h56q39 -37 116 -37q116 0 136 87l12 51q-60 -65 -151 -65q-68 0 -113.5 44.5t-45.5 132.5q0 139 77.5 234.5t197.5 95.5q87 0 140 -65q41 57 105 57h69l-113 -491q-25 -111 -101 -159t-205 -48zM263 142q44 0 88 33l49 214q-27 25 -65 25
q-64 0 -98 -60.5t-34 -139.5q0 -72 60 -72zM378 560q-38 0 -62 21.5t-24 55.5q0 39 28 65t70 26q39 0 63 -22.5t24 -56.5q0 -39 -28.5 -64t-70.5 -25z" />
    <glyph glyph-name="Gcommaaccent" unicode="&#x122;" horiz-adv-x="683" 
d="M177 -228l14 62q54 5 54 23q0 7 -15 18q-20 14 -20 40q0 30 22 48.5t52 18.5q32 0 52 -19.5t20 -51.5q0 -67 -49.5 -101.5t-129.5 -37.5zM359 -9q-145 0 -232 67.5t-87 208.5q0 87 28 166t80 141t134 98.5t182 36.5q137 0 220 -52l-29 -127h-75q-48 43 -127 43
q-56 0 -99.5 -29.5t-68.5 -77t-37.5 -100.5t-12.5 -107q0 -141 131 -141q35 0 59 8l30 131h-83l26 116h266l-77 -337q-90 -45 -228 -45z" />
    <glyph glyph-name="gcommaaccent" unicode="&#x123;" horiz-adv-x="598" 
d="M192 -171q-126 0 -208 45l28 118h56q39 -37 116 -37q116 0 136 87l12 51q-60 -65 -151 -65q-68 0 -113.5 44.5t-45.5 132.5q0 139 77.5 234.5t197.5 95.5q87 0 140 -65q41 57 105 57h69l-113 -491q-25 -111 -101 -159t-205 -48zM263 142q44 0 88 33l49 214q-27 25 -65 25
q-64 0 -98 -60.5t-34 -139.5q0 -72 60 -72zM464 770l-14 -62q-54 -5 -54 -23q0 -7 15 -18q20 -14 20 -40q0 -30 -22 -48.5t-52 -18.5q-32 0 -52 19.5t-20 51.5q0 67 49.5 101.5t129.5 37.5z" />
    <glyph glyph-name="Hcircumflex" unicode="&#x124;" horiz-adv-x="713" 
d="M-1 0l161 700h192l-64 -276h215l63 276h192l-161 -700h-192l67 288h-216l-65 -288h-192zM310 723v38l109 100h118l74 -100v-38h-99l-47 39l-64 -39h-91z" />
    <glyph glyph-name="hcircumflex" unicode="&#x125;" horiz-adv-x="596" 
d="M-10 0l160 700h107q40 0 51.5 -17t-0.5 -77l-34 -146q89 75 187 75q65 0 97.5 -47t13.5 -132l-82 -356h-125q-29 0 -37.5 15.5t0.5 57.5l59 263q13 58 -38 58q-41 0 -97 -31l-82 -363h-180zM247 723v38l109 104h118l74 -104v-38h-99l-47 42l-64 -42h-91z" />
    <glyph glyph-name="Hbar" unicode="&#x126;" horiz-adv-x="713" 
d="M58 500l26 108h55l21 92h192l-21 -92h214l21 92h192l-21 -92h55l-25 -108h-55l-115 -500h-192l66 289h-215l-65 -289h-192l115 500h-56zM288 422h214l18 78h-214z" />
    <glyph glyph-name="hbar" unicode="&#x127;" horiz-adv-x="596" 
d="M69 559l21 90h48l12 51h107q34 0 48.5 -11.5t11.5 -39.5h127l-20 -90h-126l-23 -99q89 75 186 75q65 0 97.5 -47t13.5 -132l-82 -356h-125q-29 0 -37.5 15.5t0.5 57.5l59 263q13 58 -38 58q-41 0 -96 -31l-83 -363h-180l128 559h-49z" />
    <glyph glyph-name="Imacron" unicode="&#x12a;" horiz-adv-x="313" 
d="M2 0l161 700h193l-161 -700h-193zM132 733l26 109h270l-25 -109h-271z" />
    <glyph glyph-name="imacron" unicode="&#x12b;" horiz-adv-x="280" 
d="M77 579l25 108h263l-26 -108h-262zM-8 0l121 527h101q44 0 55.5 -18.5t-0.5 -82.5l-97 -426h-180z" />
    <glyph glyph-name="Iogonek" unicode="&#x12e;" horiz-adv-x="313" 
d="M2 0l161 700h193l-161 -700q-63 -24 -63 -53q0 -21 35 -21h17l-18 -76q-32 -17 -73 -17q-47 0 -73.5 20t-26.5 54q0 61 85 93h-76z" />
    <glyph glyph-name="iogonek" unicode="&#x12f;" horiz-adv-x="280" 
d="M-8 0l121 527h101q44 0 55.5 -18.5t-0.5 -82.5l-97 -426q-64 -24 -64 -53q0 -21 35 -21h17l-18 -76q-32 -17 -73 -17q-47 0 -73.5 20t-26.5 54q0 61 85 93h-62zM217 560q-38 0 -62.5 21.5t-24.5 55.5q0 39 28.5 65t69.5 26q39 0 63.5 -22.5t24.5 -56.5q0 -39 -29 -64
t-70 -25z" />
    <glyph glyph-name="Idotaccent" unicode="&#x130;" horiz-adv-x="313" 
d="M2 0l161 700h193l-161 -700h-193zM273 723q-39 0 -63 22t-24 56q0 39 28 64.5t70 25.5q39 0 63.5 -22t24.5 -56q0 -40 -29 -65t-70 -25z" />
    <glyph glyph-name="dotlessi" unicode="&#x131;" horiz-adv-x="280" 
d="M-8 0l121 527h101q44 0 55.5 -18.5t-0.5 -82.5l-97 -426h-180z" />
    <glyph glyph-name="Jcircumflex" unicode="&#x134;" horiz-adv-x="486" 
d="M150 -9q-118 0 -180 51l28 121h68q28 -34 79 -34q68 0 85 72l114 499h193l-120 -521q-44 -188 -267 -188zM297 723v38l109 100h118l74 -100v-38h-99l-47 39l-64 -39h-91z" />
    <glyph glyph-name="jcircumflex" unicode="&#x135;" horiz-adv-x="279" 
d="M-19 -169q-60 0 -101 16l22 95h19q35 0 48.5 10t20.5 42l123 533h101q44 0 55.5 -18.5t-0.5 -82.5l-101 -441q-19 -84 -64.5 -119t-122.5 -35zM55 561v38l109 104h118l74 -104v-38h-99l-47 42l-64 -42h-91z" />
    <glyph glyph-name="Kcommaaccent" unicode="&#x136;" horiz-adv-x="688" 
d="M-1 0l161 700h192l-69 -299l285 299h170v-43l-255 -254l137 -360v-43h-184l-106 279l-96 -90l-43 -189h-192zM178 -228l14 62q54 5 54 23q0 7 -15 18q-20 14 -20 40q0 30 22 48.5t52 18.5q32 0 52 -19.5t20 -51.5q0 -67 -49.5 -101.5t-129.5 -37.5z" />
    <glyph glyph-name="kcommaaccent" unicode="&#x137;" horiz-adv-x="562" 
d="M-10 0l160 700h107q40 0 51.5 -17t-0.5 -77l-60 -264l181 185h155v-43l-190 -181l111 -260v-43h-169l-82 195l-51 -49l-33 -146h-180zM117 -228l14 62q54 5 54 23q0 7 -15 18q-20 14 -20 40q0 30 22 48.5t52 18.5q32 0 52 -19.5t20 -51.5q0 -67 -49.5 -101.5
t-129.5 -37.5z" />
    <glyph glyph-name="Lacute" unicode="&#x139;" horiz-adv-x="550" 
d="M214 723v33l50 102h165v-42l-115 -93h-100zM-1 0l161 700h192l-131 -568h268l-30 -132h-460z" />
    <glyph glyph-name="lacute" unicode="&#x13a;" horiz-adv-x="281" 
d="M181 723v33l52 109h166v-43l-118 -99h-100zM-9 0l160 700h106q40 0 52.5 -18.5t-0.5 -75.5l-139 -606h-179z" />
    <glyph glyph-name="Lcommaaccent" unicode="&#x13b;" horiz-adv-x="550" 
d="M107 -228l14 62q54 5 54 23q0 7 -15 18q-20 14 -20 40q0 30 22 48.5t52 18.5q32 0 52 -19.5t20 -51.5q0 -67 -49.5 -101.5t-129.5 -37.5zM-1 0l161 700h192l-131 -568h268l-30 -132h-460z" />
    <glyph glyph-name="lcommaaccent" unicode="&#x13c;" horiz-adv-x="281" 
d="M-47 -228l14 62q54 5 54 23q0 7 -15 18q-20 14 -20 40q0 30 22 48.5t52 18.5q32 0 52 -19.5t20 -51.5q0 -67 -49.5 -101.5t-129.5 -37.5zM-9 0l160 700h106q40 0 52.5 -18.5t-0.5 -75.5l-139 -606h-179z" />
    <glyph glyph-name="Lcaron" unicode="&#x13d;" horiz-adv-x="550" 
d="M384 562l33 138h128l-3 -43l-77 -95h-81zM-1 0l161 700h192l-131 -568h268l-30 -132h-460z" />
    <glyph glyph-name="lcaron" unicode="&#x13e;" horiz-adv-x="281" 
d="M330 562l32 138h129l-3 -43l-77 -95h-81zM-9 0l160 700h106q40 0 52.5 -18.5t-0.5 -75.5l-139 -606h-179z" />
    <glyph glyph-name="Lslash" unicode="&#x141;" horiz-adv-x="551" 
d="M-12 198l29 128l63 21l81 353h192l-65 -282l190 64l-29 -128l-191 -65l-36 -157h268l-30 -132h-460l50 219z" />
    <glyph glyph-name="lslash" unicode="&#x142;" horiz-adv-x="290" 
d="M-4 250l28 120l62 28l69 302h107q40 0 51.5 -17t-0.5 -77l-27 -118l65 30l-28 -120l-64 -29l-84 -369h-180l63 278z" />
    <glyph glyph-name="Nacute" unicode="&#x143;" horiz-adv-x="703" 
d="M411 723v33l50 102h165v-42l-115 -93h-100zM-1 0l161 700h206l128 -407h3l94 407h158l-161 -700h-176l-147 461h-3l-106 -461h-157z" />
    <glyph glyph-name="nacute" unicode="&#x144;" horiz-adv-x="595" 
d="M-10 0l121 527h72q81 0 82 -75q93 83 196 83q65 0 97.5 -47t13.5 -132l-82 -356h-125q-29 0 -37.5 15.5t0.5 57.5l59 263q13 58 -38 58q-41 0 -97 -31l-82 -363h-180zM297 561v33l52 109h166v-43l-118 -99h-100z" />
    <glyph glyph-name="Ncommaaccent" unicode="&#x145;" horiz-adv-x="703" 
d="M172 -228l14 62q54 5 54 23q0 7 -15 18q-20 14 -20 40q0 30 22 48.5t52 18.5q32 0 52 -19.5t20 -51.5q0 -67 -49.5 -101.5t-129.5 -37.5zM-1 0l161 700h206l128 -407h3l94 407h158l-161 -700h-176l-147 461h-3l-106 -461h-157z" />
    <glyph glyph-name="ncommaaccent" unicode="&#x146;" horiz-adv-x="595" 
d="M-10 0l121 527h72q81 0 82 -75q93 83 196 83q65 0 97.5 -47t13.5 -132l-82 -356h-125q-29 0 -37.5 15.5t0.5 57.5l59 263q13 58 -38 58q-41 0 -97 -31l-82 -363h-180zM130 -228l14 62q54 5 54 23q0 7 -15 18q-20 14 -20 40q0 30 22 48.5t52 18.5q32 0 52 -19.5t20 -51.5
q0 -67 -49.5 -101.5t-129.5 -37.5z" />
    <glyph glyph-name="Ncaron" unicode="&#x147;" horiz-adv-x="703" 
d="M642 861v-38l-109 -100h-117l-75 100v38h99l47 -39l64 39h91zM-1 0l161 700h206l128 -407h3l94 407h158l-161 -700h-176l-147 461h-3l-106 -461h-157z" />
    <glyph glyph-name="ncaron" unicode="&#x148;" horiz-adv-x="595" 
d="M-10 0l121 527h72q81 0 82 -75q93 83 196 83q65 0 97.5 -47t13.5 -132l-82 -356h-125q-29 0 -37.5 15.5t0.5 57.5l59 263q13 58 -38 58q-41 0 -97 -31l-82 -363h-180zM294 561l-74 104v38h99l46 -42l65 42h91v-38l-109 -104h-118z" />
    <glyph glyph-name="Omacron" unicode="&#x14c;" horiz-adv-x="744" 
d="M319 733l26 109h270l-25 -109h-271zM355 122q48 0 86 30t60 76t33 95.5t11 95.5q0 69 -28.5 113t-91.5 44q-64 0 -109.5 -53t-63.5 -118t-18 -127q0 -70 29.5 -113t91.5 -43zM347 -9q-138 0 -222.5 79t-84.5 214q0 112 46 208t137 157t208 61q142 0 225 -82t83 -215
q0 -81 -27 -156t-75.5 -134.5t-124 -95.5t-165.5 -36z" />
    <glyph glyph-name="omacron" unicode="&#x14d;" horiz-adv-x="586" 
d="M211 579l26 108h271l-26 -108h-271zM272 109q54 0 85.5 62.5t31.5 144.5q0 97 -71 97q-53 0 -86.5 -64.5t-33.5 -144.5q0 -95 74 -95zM265 -7q-114 0 -178 59.5t-64 163.5q0 139 85 229t216 90q113 0 177.5 -61t64.5 -166q0 -140 -83 -227.5t-218 -87.5z" />
    <glyph glyph-name="Ohungarumlaut" unicode="&#x150;" horiz-adv-x="744" 
d="M355 122q48 0 86 30t60 76t33 95.5t11 95.5q0 69 -28.5 113t-91.5 44q-64 0 -109.5 -53t-63.5 -118t-18 -127q0 -70 29.5 -113t91.5 -43zM347 -9q-138 0 -222.5 79t-84.5 214q0 112 46 208t137 157t208 61q142 0 225 -82t83 -215q0 -81 -27 -156t-75.5 -134.5t-124 -95.5
t-165.5 -36zM301 723v29l40 106h136v-42l-87 -93h-89zM480 723v29l41 106h135v-42l-87 -93h-89z" />
    <glyph glyph-name="ohungarumlaut" unicode="&#x151;" horiz-adv-x="586" 
d="M196 561v28l45 114h133v-42l-91 -100h-87zM373 561v28l45 114h132v-42l-91 -100h-86zM272 109q54 0 85.5 62.5t31.5 144.5q0 97 -71 97q-53 0 -86.5 -64.5t-33.5 -144.5q0 -95 74 -95zM265 -7q-114 0 -178 59.5t-64 163.5q0 139 85 229t216 90q113 0 177.5 -61t64.5 -166
q0 -140 -83 -227.5t-218 -87.5z" />
    <glyph glyph-name="OE" unicode="&#x152;" horiz-adv-x="977" 
d="M40 279q0 83 26 157.5t75.5 134t128 94.5t176.5 35h581l-31 -134h-277l-35 -149h201l-29 -126h-201l-37 -161h299l-30 -130h-531q-316 0 -316 279zM235 277q0 -72 29 -109t107 -37h55l101 438h-80q-57 0 -100 -27t-66.5 -71t-34.5 -93t-11 -101z" />
    <glyph glyph-name="oe" unicode="&#x153;" horiz-adv-x="899" 
d="M265 -7q-114 0 -178 59.5t-64 163.5q0 139 85 229t216 90q118 0 171 -80q74 80 188 80q95 1 147.5 -49.5t51.5 -146.5q0 -53 -17 -115h-310v-11q0 -54 23.5 -78t72.5 -24q68 0 124 33h57l-25 -109q-80 -43 -179 -43q-128 0 -181 76q-73 -75 -182 -75zM272 109
q54 0 85.5 62.5t31.5 144.5q0 97 -71 97q-53 0 -86.5 -64.5t-33.5 -144.5q0 -95 74 -95zM671 424q-74 0 -103 -106h154q4 16 4 35q0 71 -55 71z" />
    <glyph glyph-name="Racute" unicode="&#x154;" horiz-adv-x="655" 
d="M414 0l-98 261h-65l-60 -261h-192l161 700h239q254 0 254 -201q0 -76 -43 -131t-118 -83l98 -240v-45h-176zM277 381h68q60 0 91.5 30.5t31.5 86.5q0 71 -87 71h-60zM339 723v33l50 102h165v-42l-115 -93h-100z" />
    <glyph glyph-name="racute" unicode="&#x155;" horiz-adv-x="414" 
d="M-10 0l121 527h71q89 0 83 -92q72 96 156 96q12 0 30 -4l-33 -150h-19q-87 0 -152 -40l-77 -337h-180zM227 561v33l52 109h166v-43l-118 -99h-100z" />
    <glyph glyph-name="Rcommaaccent" unicode="&#x156;" horiz-adv-x="655" 
d="M414 0l-98 261h-65l-60 -261h-192l161 700h239q254 0 254 -201q0 -76 -43 -131t-118 -83l98 -240v-45h-176zM277 381h68q60 0 91.5 30.5t31.5 86.5q0 71 -87 71h-60zM171 -228l14 62q54 5 54 23q0 7 -15 18q-20 14 -20 40q0 30 22 48.5t52 18.5q32 0 52 -19.5t20 -51.5
q0 -67 -49.5 -101.5t-129.5 -37.5z" />
    <glyph glyph-name="rcommaaccent" unicode="&#x157;" horiz-adv-x="414" 
d="M-10 0l121 527h71q89 0 83 -92q72 96 156 96q12 0 30 -4l-33 -150h-19q-87 0 -152 -40l-77 -337h-180zM-43 -228l14 62q54 5 54 23q0 7 -15 18q-20 14 -20 40q0 30 22 48.5t52 18.5q32 0 52 -19.5t20 -51.5q0 -67 -49.5 -101.5t-129.5 -37.5z" />
    <glyph glyph-name="Rcaron" unicode="&#x158;" horiz-adv-x="655" 
d="M414 0l-98 261h-65l-60 -261h-192l161 700h239q254 0 254 -201q0 -76 -43 -131t-118 -83l98 -240v-45h-176zM571 861v-38l-109 -100h-117l-75 100v38h99l47 -39l64 39h91zM277 381h68q60 0 91.5 30.5t31.5 86.5q0 71 -87 71h-60z" />
    <glyph glyph-name="rcaron" unicode="&#x159;" horiz-adv-x="414" 
d="M-10 0l121 527h71q89 0 83 -92q72 96 156 96q12 0 30 -4l-33 -150h-19q-87 0 -152 -40l-77 -337h-180zM229 561l-74 104v38h99l46 -42l65 42h91v-38l-109 -104h-118z" />
    <glyph glyph-name="Sacute" unicode="&#x15a;" horiz-adv-x="553" 
d="M231 -9q-156 0 -242 72l27 122h73q52 -61 147 -61q103 0 103 77q0 29 -23 43.5t-87 37.5q-77 27 -115.5 71t-38.5 118q0 115 74.5 177t200.5 62q134 0 223 -66l-28 -118h-71q-54 51 -134 51q-40 0 -65 -17t-25 -52q0 -29 20.5 -43.5t83.5 -37.5q86 -28 128 -72t42 -118
q0 -117 -78.5 -181.5t-214.5 -64.5zM305 723v33l50 102h165v-42l-115 -93h-100z" />
    <glyph glyph-name="sacute" unicode="&#x15b;" horiz-adv-x="456" 
d="M230 561v33l52 109h166v-43l-118 -99h-100zM178 -7q-126 0 -199 50l25 110h62q37 -42 113 -42q71 0 71 41q0 16 -14.5 25t-56.5 23q-71 23 -104 55.5t-33 92.5q0 89 62 137t167 48q110 0 183 -47l-24 -104h-60q-40 36 -103 36q-64 0 -64 -40q0 -15 14.5 -24.5t56.5 -22.5
q71 -21 106.5 -52.5t35.5 -92.5q0 -91 -63.5 -142t-174.5 -51z" />
    <glyph glyph-name="Scircumflex" unicode="&#x15c;" horiz-adv-x="553" 
d="M231 -9q-156 0 -242 72l27 122h73q52 -61 147 -61q103 0 103 77q0 29 -23 43.5t-87 37.5q-77 27 -115.5 71t-38.5 118q0 115 74.5 177t200.5 62q134 0 223 -66l-28 -118h-71q-54 51 -134 51q-40 0 -65 -17t-25 -52q0 -29 20.5 -43.5t83.5 -37.5q86 -28 128 -72t42 -118
q0 -117 -78.5 -181.5t-214.5 -64.5zM218 723v38l109 100h118l74 -100v-38h-99l-47 39l-64 -39h-91z" />
    <glyph glyph-name="scircumflex" unicode="&#x15d;" horiz-adv-x="456" 
d="M140 561v38l109 104h118l74 -104v-38h-99l-47 42l-64 -42h-91zM178 -7q-126 0 -199 50l25 110h62q37 -42 113 -42q71 0 71 41q0 16 -14.5 25t-56.5 23q-71 23 -104 55.5t-33 92.5q0 89 62 137t167 48q110 0 183 -47l-24 -104h-60q-40 36 -103 36q-64 0 -64 -40
q0 -15 14.5 -24.5t56.5 -22.5q71 -21 106.5 -52.5t35.5 -92.5q0 -91 -63.5 -142t-174.5 -51z" />
    <glyph glyph-name="Scedilla" unicode="&#x15e;" horiz-adv-x="553" 
d="M191 -175q-56 0 -90 20l14 59h30q9 -13 33 -13q28 0 28 17q0 16 -28 16h-23l17 70q-115 11 -183 69l27 122h73q52 -61 147 -61q103 0 103 77q0 29 -23 43.5t-87 37.5q-77 27 -115.5 71t-38.5 118q0 115 74.5 177t200.5 62q134 0 223 -66l-28 -118h-71q-54 51 -134 51
q-40 0 -65 -17t-25 -52q0 -29 20.5 -43.5t83.5 -37.5q86 -28 128 -72t42 -118q0 -113 -74 -177t-203 -69l-3 -15q65 -6 65 -64q0 -46 -33.5 -66.5t-84.5 -20.5z" />
    <glyph glyph-name="scedilla" unicode="&#x15f;" horiz-adv-x="456" 
d="M142 -175q-56 0 -90 20l14 59h30q9 -13 33 -13q28 0 28 17q0 16 -27 16h-24l17 72q-90 10 -144 47l25 110h62q37 -42 113 -42q71 0 71 41q0 16 -14.5 25t-56.5 23q-71 23 -104 55.5t-33 92.5q0 89 62 137t167 48q110 0 183 -47l-24 -104h-60q-40 36 -103 36
q-64 0 -64 -40q0 -15 14.5 -24.5t56.5 -22.5q71 -21 106.5 -52.5t35.5 -92.5q0 -87 -58 -137t-159 -55l-4 -18q65 -6 65 -64q0 -46 -33.5 -66.5t-84.5 -20.5z" />
    <glyph glyph-name="Scaron" unicode="&#x160;" horiz-adv-x="553" 
d="M231 -9q-156 0 -242 72l27 122h73q52 -61 147 -61q103 0 103 77q0 29 -23 43.5t-87 37.5q-77 27 -115.5 71t-38.5 118q0 115 74.5 177t200.5 62q134 0 223 -66l-28 -118h-71q-54 51 -134 51q-40 0 -65 -17t-25 -52q0 -29 20.5 -43.5t83.5 -37.5q86 -28 128 -72t42 -118
q0 -117 -78.5 -181.5t-214.5 -64.5zM524 861v-38l-109 -100h-117l-75 100v38h99l47 -39l64 39h91z" />
    <glyph glyph-name="scaron" unicode="&#x161;" horiz-adv-x="456" 
d="M216 561l-74 104v38h99l46 -42l65 42h91v-38l-109 -104h-118zM178 -7q-126 0 -199 50l25 110h62q37 -42 113 -42q71 0 71 41q0 16 -14.5 25t-56.5 23q-71 23 -104 55.5t-33 92.5q0 89 62 137t167 48q110 0 183 -47l-24 -104h-60q-40 36 -103 36q-64 0 -64 -40
q0 -15 14.5 -24.5t56.5 -22.5q71 -21 106.5 -52.5t35.5 -92.5q0 -91 -63.5 -142t-174.5 -51z" />
    <glyph glyph-name="Tcommaaccent" unicode="&#x162;" horiz-adv-x="591" 
d="M112 -228l14 62q54 5 54 23q0 7 -15 18q-20 14 -20 40q0 30 22 48.5t52 18.5q32 0 52 -19.5t20 -51.5q0 -67 -49.5 -101.5t-129.5 -37.5zM140 0l131 567h-177l31 133h544l-30 -133h-176l-131 -567h-192z" />
    <glyph glyph-name="tcommaaccent" unicode="&#x163;" horiz-adv-x="367" 
d="M21 -228l14 62q54 5 54 23q0 7 -15 18q-20 14 -20 40q0 30 22 48.5t52 18.5q32 0 52 -19.5t20 -51.5q0 -67 -49.5 -101.5t-129.5 -37.5zM191 -9q-88 0 -125.5 44t-16.5 134l56 242h-54l26 116h54l31 134h180l-31 -134h88l-26 -116h-89l-55 -238q-8 -34 4 -49.5t49 -15.5
h25l-23 -104q-43 -13 -93 -13z" />
    <glyph glyph-name="Tcaron" unicode="&#x164;" horiz-adv-x="591" 
d="M562 861v-38l-109 -100h-117l-75 100v38h99l47 -39l64 39h91zM140 0l131 567h-177l31 133h544l-30 -133h-176l-131 -567h-192z" />
    <glyph glyph-name="tcaron" unicode="&#x165;" horiz-adv-x="367" 
d="M354 562l32 138h129l-3 -43l-78 -95h-80zM191 -9q-88 0 -125.5 44t-16.5 134l56 242h-54l26 116h54l31 134h180l-31 -134h88l-26 -116h-89l-55 -238q-8 -34 4 -49.5t49 -15.5h25l-23 -104q-43 -13 -93 -13z" />
    <glyph glyph-name="Umacron" unicode="&#x16a;" horiz-adv-x="686" 
d="M328 733l26 109h270l-25 -109h-271zM323 -8q-149 0 -223 75t-39 223l94 410h192l-100 -434q-31 -136 93 -136q56 0 87 29t46 96l103 445h159l-105 -455q-29 -125 -102 -189t-205 -64z" />
    <glyph glyph-name="umacron" unicode="&#x16b;" horiz-adv-x="593" 
d="M415 0q-83 0 -90 74q-92 -83 -184 -83q-70 0 -103.5 46.5t-12.5 133.5l82 356h125q29 0 37.5 -15.5t-0.5 -58.5l-60 -267q-13 -59 37 -59q40 0 90 29l85 371h179l-120 -527h-65zM224 579l26 108h271l-26 -108h-271z" />
    <glyph glyph-name="Ubreve" unicode="&#x16c;" horiz-adv-x="686" 
d="M471 723q-60 0 -96 29t-42 70v39h105q0 -13 9.5 -22.5t28.5 -9.5q37 0 46 32h101v-39q-15 -43 -54 -71t-98 -28zM323 -8q-149 0 -223 75t-39 223l94 410h192l-100 -434q-31 -136 93 -136q56 0 87 29t46 96l103 445h159l-105 -455q-29 -125 -102 -189t-205 -64z" />
    <glyph glyph-name="ubreve" unicode="&#x16d;" horiz-adv-x="593" 
d="M415 0q-83 0 -90 74q-92 -83 -184 -83q-70 0 -103.5 46.5t-12.5 133.5l82 356h125q29 0 37.5 -15.5t-0.5 -58.5l-60 -267q-13 -59 37 -59q40 0 90 29l85 371h179l-120 -527h-65zM352 561q-61 0 -96 30t-41 76v40h106q0 -38 37 -38q38 0 47 38h100v-40q-15 -46 -54 -76
t-99 -30z" />
    <glyph glyph-name="Uring" unicode="&#x16e;" horiz-adv-x="686" 
d="M323 -8q-149 0 -223 75t-39 223l94 410h192l-100 -434q-31 -136 93 -136q56 0 87 29t46 96l103 445h159l-105 -455q-29 -125 -102 -189t-205 -64zM462 696q-44 0 -73 26t-29 69q0 48 33.5 78.5t78.5 30.5q43 0 72.5 -26.5t29.5 -70.5q0 -48 -33 -77.5t-79 -29.5zM464 762
q17 0 27 11t10 29q0 15 -9 23.5t-23 8.5q-16 0 -25.5 -11t-9.5 -30q0 -31 30 -31z" />
    <glyph glyph-name="uring" unicode="&#x16f;" horiz-adv-x="593" 
d="M415 0q-83 0 -90 74q-92 -83 -184 -83q-70 0 -103.5 46.5t-12.5 133.5l82 356h125q29 0 37.5 -15.5t-0.5 -58.5l-60 -267q-13 -59 37 -59q40 0 90 29l85 371h179l-120 -527h-65zM354 562q-43 0 -72 26t-29 69q0 48 33 78.5t79 30.5q43 0 72 -26.5t29 -70.5
q0 -48 -33 -77.5t-79 -29.5zM357 628q16 0 26.5 11t10.5 29q0 32 -33 32q-16 0 -25.5 -11t-9.5 -30q0 -31 31 -31z" />
    <glyph glyph-name="Uhungarumlaut" unicode="&#x170;" horiz-adv-x="686" 
d="M323 -8q-149 0 -223 75t-39 223l94 410h192l-100 -434q-31 -136 93 -136q56 0 87 29t46 96l103 445h159l-105 -455q-29 -125 -102 -189t-205 -64zM310 723v29l40 106h136v-42l-87 -93h-89zM489 723v29l41 106h135v-42l-87 -93h-89z" />
    <glyph glyph-name="uhungarumlaut" unicode="&#x171;" horiz-adv-x="593" 
d="M415 0q-83 0 -90 74q-92 -83 -184 -83q-70 0 -103.5 46.5t-12.5 133.5l82 356h125q29 0 37.5 -15.5t-0.5 -58.5l-60 -267q-13 -59 37 -59q40 0 90 29l85 371h179l-120 -527h-65zM213 561v28l45 114h133v-42l-91 -100h-87zM390 561v28l45 114h132v-42l-91 -100h-86z" />
    <glyph glyph-name="Uogonek" unicode="&#x172;" horiz-adv-x="686" 
d="M308 -167q-47 0 -73.5 20.5t-26.5 53.5q0 53 70 87q-129 10 -189 85t-28 211l94 410h192l-100 -434q-31 -136 93 -136q56 0 87 29t46 96l103 445h159l-105 -455q-23 -99 -71.5 -158.5t-134.5 -82.5q-46 -13 -61 -27q-16 -13 -16 -29q0 -22 35 -22h17l-18 -76
q-32 -17 -73 -17z" />
    <glyph glyph-name="uogonek" unicode="&#x173;" horiz-adv-x="593" 
d="M391 -167q-47 0 -73.5 20.5t-26.5 53.5q0 60 86 98q-47 15 -52 69q-92 -83 -184 -83q-70 0 -103.5 46.5t-12.5 133.5l82 356h125q29 0 37.5 -15.5t-0.5 -58.5l-60 -267q-13 -59 37 -59q40 0 90 29l85 371h179l-120 -527q-50 -28 -50 -53q0 -21 35 -21h17l-18 -76
q-32 -17 -73 -17z" />
    <glyph glyph-name="Ydieresis" unicode="&#x178;" horiz-adv-x="624" 
d="M163 0l62 270l-120 383v47h179l77 -268h3l189 268h151v-47l-290 -397l-59 -256h-192zM331 722q-35 0 -56.5 20.5t-21.5 53.5q0 37 25.5 61t63.5 24q36 0 58 -21t22 -53q0 -38 -26.5 -61.5t-64.5 -23.5zM536 722q-35 0 -57 21t-22 53q0 37 26 61t64 24q35 0 57.5 -21
t22.5 -53q0 -38 -26.5 -61.5t-64.5 -23.5z" />
    <glyph glyph-name="Zacute" unicode="&#x179;" horiz-adv-x="578" 
d="M-30 0l32 139l393 424v4h-272l31 133h494l-34 -144l-393 -421v-4h295l-29 -131h-517zM338 723v33l50 102h165v-42l-115 -93h-100z" />
    <glyph glyph-name="zacute" unicode="&#x17a;" horiz-adv-x="495" 
d="M257 561v33l52 109h166v-43l-118 -99h-100zM-35 0l28 121l291 282h-214l29 124h429l-28 -124l-293 -281h223l-28 -122h-437z" />
    <glyph glyph-name="Zdotaccent" unicode="&#x17b;" horiz-adv-x="578" 
d="M407 723q-39 0 -63 22t-24 56q0 39 28 64.5t70 25.5q39 0 63.5 -22t24.5 -56q0 -40 -29 -65t-70 -25zM-30 0l32 139l393 424v4h-272l31 133h494l-34 -144l-393 -421v-4h295l-29 -131h-517z" />
    <glyph glyph-name="zdotaccent" unicode="&#x17c;" horiz-adv-x="495" 
d="M-35 0l28 121l291 282h-214l29 124h429l-28 -124l-293 -281h223l-28 -122h-437zM325 560q-38 0 -62 21.5t-24 55.5q0 39 28 65t70 26q39 0 63 -22.5t24 -56.5q0 -39 -28.5 -64t-70.5 -25z" />
    <glyph glyph-name="Zcaron" unicode="&#x17d;" horiz-adv-x="578" 
d="M570 861v-38l-109 -100h-117l-75 100v38h99l47 -39l64 39h91zM-30 0l32 139l393 424v4h-272l31 133h494l-34 -144l-393 -421v-4h295l-29 -131h-517z" />
    <glyph glyph-name="zcaron" unicode="&#x17e;" horiz-adv-x="495" 
d="M259 561l-74 104v38h99l46 -42l65 42h91v-38l-109 -104h-118zM-35 0l28 121l291 282h-214l29 124h429l-28 -124l-293 -281h223l-28 -122h-437z" />
    <glyph glyph-name="florin" unicode="&#x192;" horiz-adv-x="403" 
d="M47 328l27 116h63l26 111q37 157 212 157q49 0 87 -17l-23 -101h-22q-33 0 -50.5 -10t-24.5 -39l-24 -101h90l-27 -116h-91l-101 -428h-181l101 428h-62z" />
    <glyph glyph-name="Scommaaccent" unicode="&#x218;" horiz-adv-x="553" 
d="M108 -228l14 62q54 5 54 23q0 7 -15 18q-20 14 -20 40q0 30 22 48.5t52 18.5q32 0 52 -19.5t20 -51.5q0 -67 -49.5 -101.5t-129.5 -37.5zM231 -9q-156 0 -242 72l27 122h73q52 -61 147 -61q103 0 103 77q0 29 -23 43.5t-87 37.5q-77 27 -115.5 71t-38.5 118
q0 115 74.5 177t200.5 62q134 0 223 -66l-28 -118h-71q-54 51 -134 51q-40 0 -65 -17t-25 -52q0 -29 20.5 -43.5t83.5 -37.5q86 -28 128 -72t42 -118q0 -117 -78.5 -181.5t-214.5 -64.5z" />
    <glyph glyph-name="scommaaccent" unicode="&#x219;" horiz-adv-x="456" 
d="M39 -228l14 62q54 5 54 23q0 7 -15 18q-20 14 -20 40q0 30 22 48.5t52 18.5q32 0 52 -19.5t20 -51.5q0 -67 -49.5 -101.5t-129.5 -37.5zM178 -7q-126 0 -199 50l25 110h62q37 -42 113 -42q71 0 71 41q0 16 -14.5 25t-56.5 23q-71 23 -104 55.5t-33 92.5q0 89 62 137
t167 48q110 0 183 -47l-24 -104h-60q-40 36 -103 36q-64 0 -64 -40q0 -15 14.5 -24.5t56.5 -22.5q71 -21 106.5 -52.5t35.5 -92.5q0 -91 -63.5 -142t-174.5 -51z" />
    <glyph glyph-name="uni0237" unicode="&#x237;" horiz-adv-x="279" 
d="M-19 -169q-60 0 -101 16l22 95h19q35 0 48.5 10t20.5 42l123 533h101q44 0 55.5 -18.5t-0.5 -82.5l-101 -441q-19 -84 -64.5 -119t-122.5 -35z" />
    <glyph glyph-name="circumflex" unicode="&#x2c6;" 
d="M130 561v38l109 104h118l74 -104v-38h-99l-47 42l-64 -42h-91z" />
    <glyph glyph-name="caron" unicode="&#x2c7;" 
d="M219 561l-74 104v38h99l46 -42l65 42h91v-38l-109 -104h-118z" />
    <glyph glyph-name="breve" unicode="&#x2d8;" 
d="M285 561q-61 0 -96 30t-41 76v40h106q0 -38 37 -38q38 0 47 38h100v-40q-15 -46 -54 -76t-99 -30z" />
    <glyph glyph-name="dotaccent" unicode="&#x2d9;" 
d="M284 560q-38 0 -62 21.5t-24 55.5q0 39 28 65t70 26q39 0 63 -22.5t24 -56.5q0 -39 -28.5 -64t-70.5 -25z" />
    <glyph glyph-name="ring" unicode="&#x2da;" 
d="M293 628q16 0 26.5 11t10.5 29q0 32 -33 32q-16 0 -25.5 -11t-9.5 -30q0 -31 31 -31zM290 562q-43 0 -72 26t-29 69q0 48 33 78.5t79 30.5q43 0 72 -26.5t29 -70.5q0 -48 -33 -77.5t-79 -29.5z" />
    <glyph glyph-name="ogonek" unicode="&#x2db;" 
d="M127 -167q-47 0 -73 20t-26 54q0 61 84 93h101q-46 -28 -46 -53q0 -21 34 -21h18l-18 -76q-32 -17 -74 -17z" />
    <glyph glyph-name="tilde" unicode="&#x2dc;" 
d="M336 562q-28 0 -62 13t-43 13q-23 0 -34 -26h-86v40q32 104 119 104q27 0 61.5 -12t43.5 -12q22 0 33 24h87v-40q-33 -104 -119 -104z" />
    <glyph glyph-name="hungarumlaut" unicode="&#x2dd;" 
d="M141 561v28l45 114h133v-42l-91 -100h-87zM318 561v28l45 114h132v-42l-91 -100h-86z" />
    <glyph glyph-name="endash" unicode="&#x2013;" horiz-adv-x="449" 
d="M29 216l31 132h370l-31 -132h-370z" />
    <glyph glyph-name="emdash" unicode="&#x2014;" horiz-adv-x="750" 
d="M29 216l31 132h671l-31 -132h-671z" />
    <glyph glyph-name="quoteleft" unicode="&#x2018;" horiz-adv-x="210" 
d="M164 427q-39 0 -64.5 24.5t-25.5 65.5q0 85 59 134t163 53l-17 -74q-74 -8 -74 -37q0 -5 2 -8.5t4.5 -5.5t8 -6t8.5 -7q26 -17 26 -53q0 -37 -26 -61.5t-64 -24.5z" />
    <glyph glyph-name="quoteright" unicode="&#x2019;" horiz-adv-x="210" 
d="M55 431l16 74q75 8 75 37q0 3 -1 5.5t-2 4.5t-3.5 4l-4.5 3.5t-6 4l-7 4.5q-26 19 -26 54q0 37 26.5 61.5t64.5 24.5q39 0 64 -24.5t25 -65.5q0 -85 -58.5 -134t-162.5 -53z" />
    <glyph glyph-name="quotesinglbase" unicode="&#x201a;" horiz-adv-x="210" 
d="M-63 -101l17 74q74 6 74 37q0 3 -1 5.5t-2 4.5t-3.5 4l-4.5 3.5t-6 4l-7 4.5q-26 19 -26 54q0 37 26.5 61.5t64.5 24.5q39 0 64 -24.5t25 -65.5q0 -85 -58.5 -134t-162.5 -53z" />
    <glyph glyph-name="quotedblleft" unicode="&#x201c;" horiz-adv-x="432" 
d="M164 427q-39 0 -64.5 24.5t-25.5 65.5q0 85 59 134t163 53l-17 -74q-74 -8 -74 -37q0 -5 2 -8.5t4.5 -5.5t8 -6t8.5 -7q26 -17 26 -53q0 -37 -26 -61.5t-64 -24.5zM379 427q-39 0 -64.5 24.5t-25.5 65.5q0 85 58.5 134t162.5 53l-17 -74q-73 -8 -73 -37q0 -5 2 -8.5
t4.5 -5.5t8 -6t8.5 -7q26 -17 26 -53q0 -37 -26 -61.5t-64 -24.5z" />
    <glyph glyph-name="quotedblright" unicode="&#x201d;" horiz-adv-x="425" 
d="M55 431l17 74q74 8 74 37q0 3 -1 5.5t-2 4.5t-3.5 4l-4.5 3.5t-6 4l-7 4.5q-26 19 -26 54q0 37 26.5 61.5t64.5 24.5q39 0 64 -24.5t25 -65.5q0 -85 -58.5 -134t-162.5 -53zM270 431l17 74q73 8 73 37q0 3 -1 5.5t-2 4t-3.5 4l-4 4t-6 4t-6.5 4.5q-26 19 -26 54
q0 37 26.5 61.5t63.5 24.5q39 0 64.5 -24.5t25.5 -65.5q0 -85 -58.5 -134t-162.5 -53z" />
    <glyph glyph-name="quotedblbase" unicode="&#x201e;" horiz-adv-x="425" 
d="M-63 -101l17 74q74 6 74 37q0 3 -1 5.5t-2 4.5t-3.5 4l-4.5 3.5t-6 4l-7 4.5q-26 19 -26 54q0 37 26.5 61.5t64.5 24.5q39 0 64 -24.5t25 -65.5q0 -85 -58.5 -134t-162.5 -53zM152 -101l17 74q73 6 73 37q0 3 -1 5.5t-2 4t-3.5 4l-4 4t-6 4t-6.5 4.5q-26 19 -26 54
q0 37 26.5 61.5t63.5 24.5q39 0 64.5 -24.5t25.5 -65.5q0 -85 -58.5 -134t-162.5 -53z" />
    <glyph glyph-name="dagger" unicode="&#x2020;" horiz-adv-x="481" 
d="M112 -49l39 306l15 66l62 97l-118 -36h-58l38 163h56l102 -37l-9 104l20 86h168l-22 -97l-55 -93l119 37h57l-38 -163h-57l-101 36l14 -109l-15 -65l-98 -295h-119z" />
    <glyph glyph-name="daggerdbl" unicode="&#x2021;" horiz-adv-x="481" 
d="M86 -49l21 91l55 93l-120 -38h-56l38 163h56l103 -35l-22 73l14 58l54 71l-118 -36h-57l37 163h57l101 -37l-8 104l18 79h168l-20 -91l-55 -93l118 38h57l-37 -163h-57l-102 35l21 -73l-13 -58l-55 -71l118 36h58l-38 -163h-57l-101 37l9 -103l-19 -80h-168z" />
    <glyph glyph-name="bullet" unicode="&#x2022;" horiz-adv-x="345" 
d="M166 135q-60 0 -99.5 36t-39.5 97q0 71 46.5 114.5t113.5 43.5q59 0 99 -36.5t40 -97.5q0 -72 -45.5 -114.5t-114.5 -42.5z" />
    <glyph glyph-name="ellipsis" unicode="&#x2026;" horiz-adv-x="706" 
d="M70 -7q-39 0 -65.5 25.5t-26.5 63.5q0 39 28 66t68 27q38 0 65 -26t27 -63q0 -39 -28 -66t-68 -27zM313 -7q-39 0 -65.5 25.5t-26.5 63.5q0 39 27.5 66t68.5 27q38 0 65 -26t27 -63q0 -39 -28 -66t-68 -27zM556 -7q-39 0 -65.5 25.5t-26.5 63.5q0 39 27.5 66t68.5 27
q38 0 65 -26t27 -63q0 -39 -28 -66t-68 -27z" />
    <glyph glyph-name="perthousand" unicode="&#x2030;" horiz-adv-x="1265" 
d="M238 422q25 0 43 25t25.5 55t7.5 57q0 56 -43 56q-37 0 -57 -46.5t-20 -91.5q0 -55 44 -55zM229 329q-73 0 -118.5 41.5t-45.5 111.5q0 95 62 160.5t152 65.5q73 0 118.5 -42t45.5 -113q0 -92 -62 -158t-152 -66zM76 -34l629 763h119l-629 -763h-119zM634 85
q36 0 56 45.5t20 90.5q0 57 -43 57q-36 0 -56.5 -46.5t-20.5 -91.5q0 -55 44 -55zM626 -9q-74 0 -119.5 42t-45.5 112q0 94 62 160t152 66q73 0 118.5 -41.5t45.5 -113.5q0 -92 -62 -158.5t-151 -66.5zM1040 85q36 0 56 45.5t20 90.5q0 57 -43 57q-36 0 -57 -46.5t-21 -91.5
q0 -55 45 -55zM1031 -9q-74 0 -119 41.5t-45 112.5q0 94 62 160t152 66q73 0 118 -41.5t45 -113.5q0 -93 -61.5 -159t-151.5 -66z" />
    <glyph glyph-name="guilsinglleft" unicode="&#x2039;" horiz-adv-x="311" 
d="M106 40l-78 196l14 63l150 181h136v-36l-154 -190v-3l67 -175v-36h-135z" />
    <glyph glyph-name="guilsinglright" unicode="&#x203a;" horiz-adv-x="311" 
d="M-12 40v36l154 191v2l-67 175v36h135l78 -196l-14 -63l-150 -181h-136z" />
    <glyph glyph-name="fraction" unicode="&#x2044;" horiz-adv-x="226" 
d="M-239 -34l629 763h119l-629 -763h-119z" />
    <glyph glyph-name="Euro" unicode="&#x20ac;" horiz-adv-x="617" 
d="M49 373l22 93h52q47 110 140 176.5t225 66.5q118 0 189 -46l-28 -122h-74q-36 32 -95 32q-106 0 -162 -107h174l-33 -93h-174q-6 -34 -8 -47h163l-33 -93h-135q3 -58 30.5 -83.5t82.5 -25.5q68 0 123 41h68l-29 -129q-75 -45 -184 -45q-122 0 -199 61t-83 181h-64l21 93
h48q4 32 8 47h-45z" />
    <glyph glyph-name="trademark" unicode="&#x2122;" horiz-adv-x="710" 
d="M355 420l65 280h135l8 -139h1l72 139h142l-65 -280h-95l45 193h-1l-103 -193h-66l-12 193h-1l-45 -193h-80zM143 420l49 210h-78l17 70h252l-17 -70h-78l-48 -210h-97z" />
    <glyph glyph-name="onethird" unicode="&#x2153;" horiz-adv-x="808" 
d="M106 308l60 263l-55 -25h-23l23 100l121 54h103l-91 -392h-138zM13 -34l629 763h119l-629 -763h-119zM579 -7q-92 0 -147 43l18 79h47q29 -31 72 -31q50 0 50 38q0 34 -47 34h-34l18 79h42q23 0 35.5 10t12.5 26q0 34 -43 34q-24 0 -60 -17h-47l19 85q50 26 118 26
q67 0 105.5 -26.5t38.5 -79.5q0 -78 -94 -97v-3q30 -7 48.5 -28t18.5 -53q0 -55 -46.5 -87t-124.5 -32z" />
    <glyph glyph-name="twothirds" unicode="&#x2154;" horiz-adv-x="878" 
d="M35 308l23 99l122 87q73 50 73 82q0 30 -37 30q-34 0 -65 -23h-50l22 96q53 28 126 28q70 0 107.5 -28.5t37.5 -80.5q0 -44 -30.5 -79.5t-97.5 -77.5l-55 -35h142l-23 -98h-295zM94 -34l629 763h119l-629 -763h-119zM648 -7q-92 0 -147 43l18 79h47q29 -31 72 -31
q50 0 50 38q0 34 -47 34h-34l18 79h42q23 0 35.5 10t12.5 26q0 34 -43 34q-24 0 -60 -17h-47l19 85q50 26 118 26q67 0 105.5 -26.5t38.5 -79.5q0 -78 -94 -97v-3q30 -7 48.5 -28t18.5 -53q0 -55 -46.5 -87t-124.5 -32z" />
    <glyph glyph-name="oneeighth" unicode="&#x215b;" horiz-adv-x="829" 
d="M106 308l60 263l-55 -25h-23l23 100l121 54h103l-91 -392h-138zM17 -34l629 763h119l-629 -763h-119zM598 -7q-73 0 -121.5 29t-48.5 83q0 84 97 107v2q-46 18 -46 68q0 53 45 84t122 31q71 0 112 -28t41 -79q0 -34 -22 -56.5t-57 -30.5v-2q57 -24 57 -83q0 -55 -47 -90
t-132 -35zM600 74q22 0 37.5 16.5t15.5 38.5q0 44 -43 44q-25 0 -40 -16.5t-15 -39.5q0 -43 45 -43zM635 237q20 0 32 12.5t12 32.5q0 37 -37 37q-19 0 -32.5 -13.5t-13.5 -33.5q0 -17 11 -26t28 -9z" />
    <glyph glyph-name="threeeighths" unicode="&#x215c;" horiz-adv-x="856" 
d="M191 301q-92 0 -147 44l18 78h47q28 -31 71 -31q23 0 36.5 10.5t13.5 27.5q0 35 -46 35h-35l19 79h41q49 0 49 36q0 33 -43 33q-30 0 -60 -17h-47l19 85q50 26 117 26t106 -26t39 -79q0 -78 -95 -98v-2q68 -17 68 -81q0 -55 -46.5 -87.5t-124.5 -32.5zM59 -34l629 763
h119l-629 -763h-119zM624 -7q-73 0 -121.5 29t-48.5 83q0 84 97 107v2q-46 18 -46 68q0 53 45 84t122 31q71 0 112 -28t41 -79q0 -34 -22 -56.5t-57 -30.5v-2q57 -24 57 -83q0 -55 -47 -90t-132 -35zM626 74q22 0 37.5 16.5t15.5 38.5q0 44 -43 44q-25 0 -40 -16.5
t-15 -39.5q0 -43 45 -43zM661 237q20 0 32 12.5t12 32.5q0 37 -37 37q-19 0 -32.5 -13.5t-13.5 -33.5q0 -17 11 -26t28 -9z" />
    <glyph glyph-name="fiveeighths" unicode="&#x215d;" horiz-adv-x="865" 
d="M182 302q-85 0 -136 39l17 79h49q26 -26 66 -26q29 0 45 13.5t16 36.5q0 33 -38 33q-27 0 -46 -19h-71l56 242h264l-22 -96h-170l-17 -67h2q30 20 72 20q48 0 76 -27t28 -74q0 -74 -52.5 -114t-138.5 -40zM62 -34l629 763h119l-629 -763h-119zM633 -7q-73 0 -121.5 29
t-48.5 83q0 84 97 107v2q-46 18 -46 68q0 53 45 84t122 31q71 0 112 -28t41 -79q0 -34 -22 -56.5t-57 -30.5v-2q57 -24 57 -83q0 -55 -47 -90t-132 -35zM635 74q22 0 37.5 16.5t15.5 38.5q0 44 -43 44q-25 0 -40 -16.5t-15 -39.5q0 -43 45 -43zM670 237q20 0 32 12.5
t12 32.5q0 37 -37 37q-19 0 -32.5 -13.5t-13.5 -33.5q0 -17 11 -26t28 -9z" />
    <glyph glyph-name="seveneighths" unicode="&#x215e;" horiz-adv-x="842" 
d="M21 -34l629 763h119l-629 -763h-119zM611 -7q-73 0 -121.5 29t-48.5 83q0 84 97 107v2q-46 18 -46 68q0 53 45 84t122 31q71 0 112 -28t41 -79q0 -34 -22 -56.5t-57 -30.5v-2q57 -24 57 -83q0 -55 -47 -90t-132 -35zM613 74q22 0 37.5 16.5t15.5 38.5q0 44 -43 44
q-25 0 -40 -16.5t-15 -39.5q0 -43 45 -43zM648 237q20 0 32 12.5t12 32.5q0 37 -37 37q-19 0 -32.5 -13.5t-13.5 -33.5q0 -17 11 -26t28 -9zM86 308v35l194 251v2h-178l23 104h292l-24 -108l-175 -284h-132z" />
    <glyph glyph-name="minus" unicode="&#x2212;" horiz-adv-x="522" 
d="M22 276l32 139h486l-32 -139h-486z" />
    <glyph glyph-name="fi" unicode="&#xfb01;" horiz-adv-x="618" 
d="M329 0l121 527h101q45 0 56.5 -18.5t-1.5 -82.5l-97 -426h-180zM560 560q-39 0 -63 21.5t-24 55.5q0 39 28 65t70 26q39 0 63.5 -22.5t24.5 -56.5q0 -39 -29 -64t-70 -25zM15 0l91 411h-57l26 116h57l7 31q18 81 68 117.5t134 36.5q52 0 91 -13l-22 -102h-21
q-34 0 -50 -9t-22 -36l-6 -25h83l-26 -116h-83l-93 -411h-177z" />
    <glyph glyph-name="fl" unicode="&#xfb02;" horiz-adv-x="620" 
d="M15 0l91 411h-57l26 116h57l7 31q18 81 68 117.5t134 36.5q55 0 90 -14l-22 -101h-20q-34 0 -50 -9t-22 -35l-6 -26h83l-26 -116h-83l-93 -411h-177zM329 0l161 700h106q40 0 52.5 -18.5t-0.5 -75.5l-139 -606h-180z" />
    <glyph glyph-name="space_uni0326" 
d="M25 -228l14 62q54 5 54 23q0 7 -15 18q-20 14 -20 40q0 30 22 48.5t52 18.5q32 0 52 -19.5t20 -51.5q0 -67 -49.5 -101.5t-129.5 -37.5z" />
    <glyph glyph-name="zero.numerator" horiz-adv-x="429" 
d="M252 393q40 0 60.5 52t20.5 109q0 58 -40 58q-28 0 -47.5 -28.5t-27 -63t-7.5 -69.5q0 -58 41 -58zM246 302q-75 0 -121.5 42.5t-46.5 115.5q0 104 62 175.5t160 71.5q76 0 121 -43.5t45 -116.5q0 -104 -61 -174.5t-159 -70.5z" />
    <glyph glyph-name="one.numerator" horiz-adv-x="278" 
d="M106 308l60 263l-55 -25h-23l23 100l121 54h103l-91 -392h-138z" />
    <glyph glyph-name="two.numerator" horiz-adv-x="350" 
d="M35 308l23 99l122 87q73 50 73 82q0 30 -37 30q-34 0 -65 -23h-50l22 96q53 28 126 28q70 0 107.5 -28.5t37.5 -80.5q0 -44 -30.5 -79.5t-97.5 -77.5l-55 -35h142l-23 -98h-295z" />
    <glyph glyph-name="three.numerator" horiz-adv-x="345" 
d="M187 301q-92 0 -147 44l18 78h47q28 -31 71 -31q23 0 36.5 10.5t13.5 27.5q0 35 -46 35h-35l19 79h41q49 0 49 36q0 33 -43 33q-30 0 -60 -17h-47l19 85q50 26 117 26t106 -26t39 -79q0 -78 -95 -98v-2q68 -17 68 -81q0 -55 -46.5 -87.5t-124.5 -32.5z" />
    <glyph glyph-name="four.numerator" horiz-adv-x="386" 
d="M209 308l18 79h-173l22 94l225 219h129l-54 -231h40l-19 -82h-40l-18 -79h-130zM166 469h84l25 106h-3l-106 -104v-2z" />
    <glyph glyph-name="five.numerator" horiz-adv-x="351" 
d="M180 302q-85 0 -136 39l17 79h49q26 -26 66 -26q29 0 45 13.5t16 36.5q0 33 -38 33q-27 0 -46 -19h-71l56 242h264l-22 -96h-170l-17 -67h2q30 20 72 20q48 0 76 -27t28 -74q0 -74 -52.5 -114t-138.5 -40z" />
    <glyph glyph-name="six.numerator" horiz-adv-x="394" 
d="M239 302q-73 0 -117 39t-44 108q0 106 62 175q71 82 184 82q73 0 118 -33l-18 -81h-52q-22 18 -52 18q-49 0 -79 -40q-13 -18 -23 -45q36 26 88 26q48 0 77.5 -26.5t29.5 -77.5q0 -67 -48.5 -106t-125.5 -39zM248 478q-25 0 -43 -9q-2 -11 -2 -33q0 -53 37 -53
q21 0 34 15.5t13 40.5q0 39 -39 39z" />
    <glyph glyph-name="seven.numerator" horiz-adv-x="337" 
d="M83 308v35l194 251v2h-178l23 104h292l-24 -108l-175 -284h-132z" />
    <glyph glyph-name="eight.numerator" horiz-adv-x="393" 
d="M232 301q-73 0 -121.5 29t-48.5 84q0 84 97 106v2q-45 19 -45 69q0 52 45 83.5t122 31.5q70 0 111 -28.5t41 -78.5q0 -35 -21.5 -57.5t-57.5 -30.5v-2q58 -22 58 -83q0 -55 -47.5 -90t-132.5 -35zM235 382q22 0 37.5 16.5t15.5 39.5q0 43 -44 43q-24 0 -39.5 -16.5
t-15.5 -39.5q0 -20 13 -31.5t33 -11.5zM270 546q19 0 31.5 12.5t12.5 31.5q0 17 -10 27.5t-28 10.5q-19 0 -32 -14t-13 -34q0 -34 39 -34z" />
    <glyph glyph-name="nine.numerator" horiz-adv-x="391" 
d="M189 302q-83 0 -127 34l18 79h52q20 -18 58 -18q52 0 78 35q13 17 23 49q-38 -28 -91 -28q-47 0 -76.5 27.5t-29.5 74.5q0 70 50 110.5t127 40.5q73 0 115 -39.5t42 -112.5q0 -111 -59 -176q-67 -76 -180 -76zM258 527q24 0 44 9q2 22 2 32q0 56 -38 56q-21 0 -35 -16
t-14 -43q0 -38 41 -38z" />
    <glyph glyph-name="zero.denominator" horiz-adv-x="429" 
d="M181 84q28 0 47.5 29t27 64t7.5 69q0 58 -41 58q-40 0 -61 -52.5t-21 -108.5q0 -59 41 -59zM175 -7q-75 0 -121 43t-46 116q0 103 61.5 174.5t159.5 71.5q77 0 121.5 -43.5t44.5 -115.5q0 -105 -60.5 -175.5t-159.5 -70.5z" />
    <glyph glyph-name="one.denominator" horiz-adv-x="278" 
d="M35 0l61 263l-55 -25h-24l23 99l122 55h102l-90 -392h-139z" />
    <glyph glyph-name="two.denominator" horiz-adv-x="350" 
d="M-36 0l23 98l123 87q37 26 55 45t18 38q0 29 -38 29q-37 0 -64 -22h-50l22 95q53 28 125 28q70 0 108 -28t38 -80q0 -45 -30.5 -80.5t-97.5 -76.5l-56 -35h143l-23 -98h-296z" />
    <glyph glyph-name="three.denominator" horiz-adv-x="345" 
d="M116 -7q-92 0 -147 43l18 79h47q29 -31 72 -31q50 0 50 38q0 34 -47 34h-34l18 79h42q23 0 35.5 10t12.5 26q0 34 -43 34q-24 0 -60 -17h-47l19 85q50 26 118 26q67 0 105.5 -26.5t38.5 -79.5q0 -78 -94 -97v-3q30 -7 48.5 -28t18.5 -53q0 -55 -46.5 -87t-124.5 -32z" />
    <glyph glyph-name="four.denominator" horiz-adv-x="386" 
d="M138 0l18 78h-173l23 95l225 219h128l-53 -231h39l-19 -83h-39l-18 -78h-131zM95 160h84l25 106h-2l-107 -104v-2z" />
    <glyph glyph-name="five.denominator" horiz-adv-x="351" 
d="M109 -6q-84 0 -136 38l18 79h49q26 -26 65 -26q29 0 45.5 13.5t16.5 36.5q0 34 -39 34q-28 0 -45 -19h-72l56 242h264l-22 -96h-170l-16 -68h2q25 20 72 20t75.5 -26.5t28.5 -73.5q0 -74 -52.5 -114t-139.5 -40z" />
    <glyph glyph-name="six.denominator" horiz-adv-x="394" 
d="M168 -7q-73 0 -116.5 39t-43.5 109q0 105 61 174q71 82 184 82q72 0 119 -32l-19 -82h-52q-21 19 -51 19q-49 0 -80 -40q-13 -18 -23 -45q40 26 88 26q49 0 78.5 -27t29.5 -78q0 -66 -49 -105.5t-126 -39.5zM177 170q-23 0 -43 -10q-2 -11 -2 -32q0 -54 38 -54
q21 0 34 16t13 41q0 39 -40 39z" />
    <glyph glyph-name="seven.denominator" horiz-adv-x="337" 
d="M12 0v34l194 252v2h-178l24 104h292l-25 -109l-174 -283h-133z" />
    <glyph glyph-name="eight.denominator" horiz-adv-x="393" 
d="M162 -7q-73 0 -121.5 29t-48.5 83q0 84 97 107v2q-46 18 -46 68q0 53 45 84t122 31q71 0 112 -28t41 -79q0 -34 -22 -56.5t-57 -30.5v-2q57 -24 57 -83q0 -55 -47 -90t-132 -35zM164 74q22 0 37.5 16.5t15.5 38.5q0 44 -43 44q-25 0 -40 -16.5t-15 -39.5q0 -43 45 -43z
M199 237q20 0 32 12.5t12 32.5q0 37 -37 37q-19 0 -32.5 -13.5t-13.5 -33.5q0 -17 11 -26t28 -9z" />
    <glyph glyph-name="nine.denominator" horiz-adv-x="391" 
d="M119 -7q-81 0 -128 34l19 80h51q22 -18 59 -18q52 0 78 35q11 15 22 47q-37 -27 -91 -27q-46 0 -76 28t-30 74q0 71 50.5 111.5t127.5 40.5q73 0 115 -39.5t42 -112.5q0 -110 -60 -176q-65 -77 -179 -77zM188 218q24 0 44 10q2 22 2 32q0 56 -38 56q-22 0 -35.5 -16.5
t-13.5 -42.5q0 -39 41 -39z" />
    <glyph glyph-name="a.alt" horiz-adv-x="600" 
d="M426 0q-78 0 -90 67q-59 -76 -152 -76q-71 0 -117.5 47.5t-46.5 144.5q0 141 81 246t202 105q87 0 135 -62q42 55 105 55h66l-121 -527h-62zM266 111q36 0 74 26v1l57 251q-22 15 -57 15q-63 0 -101 -66t-38 -152q0 -75 65 -75z" />
    <glyph glyph-name="aacute.alt" horiz-adv-x="600" 
d="M426 0q-78 0 -90 67q-59 -76 -152 -76q-71 0 -117.5 47.5t-46.5 144.5q0 141 81 246t202 105q87 0 135 -62q42 55 105 55h66l-121 -527h-62zM266 111q36 0 74 26v1l57 251q-22 15 -57 15q-63 0 -101 -66t-38 -152q0 -75 65 -75zM327 561v33l52 109h166v-43l-118 -99h-100
z" />
    <glyph glyph-name="abreve.alt" horiz-adv-x="600" 
d="M426 0q-78 0 -90 67q-59 -76 -152 -76q-71 0 -117.5 47.5t-46.5 144.5q0 141 81 246t202 105q87 0 135 -62q42 55 105 55h66l-121 -527h-62zM266 111q36 0 74 26v1l57 251q-22 15 -57 15q-63 0 -101 -66t-38 -152q0 -75 65 -75zM365 561q-61 0 -96 30t-41 76v40h106
q0 -38 37 -38q38 0 47 38h100v-40q-15 -46 -54 -76t-99 -30z" />
    <glyph glyph-name="acircumflex.alt" horiz-adv-x="600" 
d="M426 0q-78 0 -90 67q-59 -76 -152 -76q-71 0 -117.5 47.5t-46.5 144.5q0 141 81 246t202 105q87 0 135 -62q42 55 105 55h66l-121 -527h-62zM266 111q36 0 74 26v1l57 251q-22 15 -57 15q-63 0 -101 -66t-38 -152q0 -75 65 -75zM223 561v38l109 104h118l74 -104v-38h-99
l-47 42l-64 -42h-91z" />
    <glyph glyph-name="adieresis.alt" horiz-adv-x="600" 
d="M426 0q-78 0 -90 67q-59 -76 -152 -76q-71 0 -117.5 47.5t-46.5 144.5q0 141 81 246t202 105q87 0 135 -62q42 55 105 55h66l-121 -527h-62zM266 111q36 0 74 26v1l57 251q-22 15 -57 15q-63 0 -101 -66t-38 -152q0 -75 65 -75zM275 560q-35 0 -57 21t-22 53
q0 37 25.5 61t64.5 24q35 0 57.5 -21t22.5 -53q0 -38 -26.5 -61.5t-64.5 -23.5zM479 560q-35 0 -56.5 20.5t-21.5 53.5q0 37 25.5 61t63.5 24q36 0 58 -21t22 -53q0 -38 -26.5 -61.5t-64.5 -23.5z" />
    <glyph glyph-name="agrave.alt" horiz-adv-x="600" 
d="M426 0q-78 0 -90 67q-59 -76 -152 -76q-71 0 -117.5 47.5t-46.5 144.5q0 141 81 246t202 105q87 0 135 -62q42 55 105 55h66l-121 -527h-62zM266 111q36 0 74 26v1l57 251q-22 15 -57 15q-63 0 -101 -66t-38 -152q0 -75 65 -75zM332 561l-92 99v43h162l39 -109v-33h-109z
" />
    <glyph glyph-name="amacron.alt" horiz-adv-x="600" 
d="M426 0q-78 0 -90 67q-59 -76 -152 -76q-71 0 -117.5 47.5t-46.5 144.5q0 141 81 246t202 105q87 0 135 -62q42 55 105 55h66l-121 -527h-62zM266 111q36 0 74 26v1l57 251q-22 15 -57 15q-63 0 -101 -66t-38 -152q0 -75 65 -75zM232 579l26 108h271l-26 -108h-271z" />
    <glyph glyph-name="aogonek.alt" horiz-adv-x="600" 
d="M400 -167q-47 0 -73.5 20t-26.5 54q0 60 85 98q-43 14 -49 61q-61 -75 -152 -75q-71 0 -117.5 47.5t-46.5 144.5q0 141 81 246t202 105q87 0 135 -62q42 55 105 55h66l-121 -527q-49 -28 -49 -53q0 -21 35 -21h17l-18 -76q-32 -17 -73 -17zM266 111q36 0 74 26v1l57 251
q-22 15 -57 15q-63 0 -101 -66t-38 -152q0 -75 65 -75z" />
    <glyph glyph-name="aring.alt" horiz-adv-x="600" 
d="M426 0q-78 0 -90 67q-59 -76 -152 -76q-71 0 -117.5 47.5t-46.5 144.5q0 141 81 246t202 105q87 0 135 -62q42 55 105 55h66l-121 -527h-62zM266 111q36 0 74 26v1l57 251q-22 15 -57 15q-63 0 -101 -66t-38 -152q0 -75 65 -75zM369 562q-43 0 -72 26t-29 69
q0 48 33 78.5t79 30.5q43 0 72 -26.5t29 -70.5q0 -48 -33 -77.5t-79 -29.5zM372 628q16 0 26.5 11t10.5 29q0 32 -33 32q-16 0 -25.5 -11t-9.5 -30q0 -31 31 -31z" />
    <glyph glyph-name="atilde.alt" horiz-adv-x="600" 
d="M426 0q-78 0 -90 67q-59 -76 -152 -76q-71 0 -117.5 47.5t-46.5 144.5q0 141 81 246t202 105q87 0 135 -62q42 55 105 55h66l-121 -527h-62zM266 111q36 0 74 26v1l57 251q-22 15 -57 15q-63 0 -101 -66t-38 -152q0 -75 65 -75zM440 562q-28 0 -62 13t-43 13
q-23 0 -34 -26h-86v40q32 104 119 104q27 0 61.5 -12t43.5 -12q22 0 33 24h87v-40q-33 -104 -119 -104z" />
    <glyph glyph-name="Q.alt" horiz-adv-x="744" 
d="M522 -121q-23 39 -64 59.5t-114.5 39t-105.5 30.5q-198 74 -198 276q0 112 46 208t137 157t208 61q142 0 225 -82t83 -215q0 -125 -60 -220.5t-170 -129.5v-3q70 -13 122 -45t70 -72v-64h-179zM357 121q48 0 86 30t59 76.5t32 96t11 95.5q0 69 -28.5 113t-91.5 44
q-64 0 -109.5 -53t-63.5 -118t-18 -127q0 -157 123 -157z" />
    <glyph glyph-name="Q.alt1" horiz-adv-x="744" 
d="M345 -9q-136 0 -220.5 79t-84.5 214q0 112 46 208t137 157t208 61q142 0 225 -82t83 -215q0 -172 -111 -296l58 -60v-57h-149l-26 28q-77 -37 -166 -37zM357 116q35 0 62 12l-63 70v54h143l15 -16q31 78 31 183q0 69 -28.5 113t-91.5 44q-49 0 -87.5 -30.5t-60.5 -78
t-33 -97.5t-11 -96q0 -158 124 -158z" />
    <glyph glyph-name="f.short" horiz-adv-x="339" 
d="M15 0l91 411h-57l26 116h57l7 31q18 81 68 117.5t134 36.5q55 0 90 -14l-22 -101h-20q-34 0 -50 -9t-22 -35l-6 -26h83l-26 -116h-83l-93 -411h-177z" />
    <glyph glyph-name="f_f.short" horiz-adv-x="654" 
d="M15 0l91 411h-57l26 116h57l6 27q19 79 68.5 115.5t130.5 36.5q61 0 96 -14l-22 -101h-24q-34 0 -49.5 -8.5t-21.5 -34.5l-5 -21h136l7 31q19 81 68.5 117.5t133.5 36.5q55 0 90 -14l-22 -101h-20q-34 0 -50 -9t-22 -35l-6 -26h83l-26 -116h-83l-93 -411h-176l91 411
h-137l-93 -411h-177z" />
    <glyph glyph-name="less.cap" horiz-adv-x="446" 
d="M210 0l-166 310l20 85l283 305h166v-46l-288 -314v-3l149 -291v-46h-164z" />
    <glyph glyph-name="greater.cap" horiz-adv-x="446" 
d="M-19 0v46l287 314v3l-149 291v46h165l165 -310l-20 -85l-283 -305h-165z" />
    <glyph glyph-name="questiondown.cap" horiz-adv-x="466" 
d="M395 482q-3 -66 -24.5 -107.5t-77.5 -81.5q-8 -6 -28.5 -20t-30.5 -21.5t-23 -20t-18.5 -26t-5.5 -28.5q0 -50 65 -50q53 0 100 31h68l-29 -126q-73 -42 -181 -42q-96 0 -153.5 41t-57.5 124q0 123 152 203q55 30 81.5 56t33.5 68h129zM358 707q38 0 63.5 -25.5
t25.5 -61.5q0 -40 -29 -67.5t-70 -27.5q-39 0 -64.5 25.5t-25.5 61.5q0 40 29.5 67.5t70.5 27.5z" />
    <glyph glyph-name="exclamdown.cap" horiz-adv-x="289" 
d="M255 482l-53 -377l-24 -105h-192l25 105l130 377h114zM228 707q39 0 64.5 -25.5t25.5 -61.5q0 -40 -29 -67.5t-71 -27.5q-39 0 -64.5 25.5t-25.5 61.5q0 40 29.5 67.5t70.5 27.5z" />
    <glyph glyph-name="bullet.cap" horiz-adv-x="345" 
d="M178 182q-59 0 -98.5 34.5t-39.5 92.5q0 73 47 118.5t114 45.5q59 0 98.5 -34.5t39.5 -91.5q0 -75 -46 -120t-115 -45z" />
    <glyph glyph-name="hyphen.cap" horiz-adv-x="300" 
d="M26 262l30 130h246l-30 -130h-246z" />
    <glyph glyph-name="endash.cap" horiz-adv-x="424" 
d="M27 265l29 125h370l-29 -125h-370z" />
    <glyph glyph-name="emdash.cap" horiz-adv-x="690" 
d="M27 265l29 125h636l-29 -125h-636z" />
    <glyph glyph-name="dagger.cap" horiz-adv-x="481" 
d="M123 0l29 260l16 73l62 97l-118 -36h-58l38 163h56l102 -37l-9 104l18 76h168l-20 -88l-55 -93l119 38h57l-38 -163h-57l-101 35l14 -108l-17 -72l-87 -249h-119z" />
    <glyph glyph-name="daggerdbl.cap" horiz-adv-x="481" 
d="M97 0l17 73l55 94l-120 -38h-57l38 161h56l103 -35l-23 76l11 42l56 73l-118 -36h-57l37 161h56l102 -37l-9 104l15 62h168l-17 -73l-55 -94l119 38h57l-37 -161h-57l-102 35l23 -76l-10 -42l-57 -73l117 36h58l-37 -161h-58l-100 37l9 -104l-14 -62h-169z" />
    <glyph glyph-name="quoteleft.cap" horiz-adv-x="531" 
d="M265 -9q-108 0 -172 66t-64 179q0 200 149 327.5t420 137.5l-27 -123q-124 -13 -180 -51.5t-56 -89.5q0 -21 15 -35.5t46.5 -32t47.5 -30.5q57 -47 57 -127q0 -98 -69 -159.5t-167 -61.5z" />
    <glyph glyph-name="quoteright.cap" horiz-adv-x="531" 
d="M-21 0l28 123q123 13 179 51t56 89q0 22 -15 36.5t-46.5 32.5t-47.5 30q-56 45 -56 126q0 98 68.5 159.5t166.5 61.5q108 0 172 -66t64 -179q0 -199 -149 -326.5t-420 -137.5z" />
    <glyph glyph-name="quotedblleft.cap" horiz-adv-x="1053" 
d="M265 -9q-108 0 -172 66t-64 179q0 200 149 327.5t420 137.5l-27 -123q-124 -13 -180 -51.5t-56 -89.5q0 -21 15 -35.5t46.5 -32t47.5 -30.5q57 -47 57 -127q0 -98 -69 -159.5t-167 -61.5zM787 -9q-108 0 -172 66t-64 179q0 200 149.5 327.5t420.5 137.5l-28 -123
q-124 -13 -179.5 -51.5t-55.5 -89.5q0 -21 15 -35.5t46.5 -32t47.5 -30.5q56 -48 56 -127q0 -98 -68.5 -159.5t-167.5 -61.5z" />
    <glyph glyph-name="quotedblright.cap" horiz-adv-x="1053" 
d="M-21 0l28 123q123 13 179 51t56 89q0 22 -15 36.5t-46.5 32.5t-47.5 30q-56 45 -56 126q0 98 68.5 159.5t166.5 61.5q108 0 172 -66t64 -179q0 -199 -149 -326.5t-420 -137.5zM501 0l28 123q124 13 179.5 51t55.5 89q0 22 -15 36.5t-46.5 32.5t-47.5 30q-56 46 -56 126
q0 98 68.5 159.5t167.5 61.5q108 0 172 -66t64 -179q0 -199 -149.5 -326.5t-420.5 -137.5z" />
    <glyph glyph-name="guillemotleft.cap" horiz-adv-x="740" 
d="M213 0l-169 314l20 85l278 301h165v-46l-281 -310v-2l151 -296v-46h-164zM503 0l-166 310l20 85l283 305h166v-46l-287 -314v-3l148 -291v-46h-164z" />
    <glyph glyph-name="guillemotright.cap" horiz-adv-x="740" 
d="M-19 0v46l287 314v3l-149 291v46h165l165 -310l-20 -85l-283 -305h-165zM444 0h-165v46l282 310v3l-151 295v46h164l168 -314l-20 -85z" />
    <glyph glyph-name="at.cap" horiz-adv-x="863" 
d="M452 -34q-77 0 -146.5 21t-126.5 62t-91 110t-34 158q0 96 38 176t99.5 130t137 77.5t153.5 27.5q161 0 268 -84t107 -230q0 -127 -70 -193t-171 -66q-103 0 -132 63q-48 -61 -122 -61q-55 0 -88.5 36t-33.5 102q0 95 58 165.5t154 70.5q57 0 95 -40q26 34 70 34h67
l-50 -228q-12 -50 22 -50q43 0 70.5 42t27.5 125q0 106 -73.5 165.5t-201.5 59.5q-130 0 -222.5 -84t-92.5 -238q0 -133 81 -197.5t213 -64.5q142 0 241 63h37l-22 -96q-100 -56 -262 -56zM423 261q30 0 56 26l30 134q-14 7 -34 7q-38 0 -62.5 -37.5t-24.5 -88.5
q0 -41 35 -41z" />
    <glyph glyph-name="paragraph.cap" horiz-adv-x="592" 
d="M185 0l69 300h-2q-78 0 -128 45.5t-50 124.5q0 83 43.5 136.5t107.5 73.5t147 20h267l-162 -700h-114l136 586h-64l-136 -586h-114z" />
    <glyph glyph-name="grave.cap" 
d="M374 723h-108l-90 93v42h162l36 -102v-33z" />
    <glyph glyph-name="dieresis.cap" 
d="M219 722q-35 0 -56.5 20.5t-21.5 53.5q0 37 25.5 61t63.5 24q36 0 58 -21t22 -53q0 -38 -26.5 -61.5t-64.5 -23.5zM424 722q-35 0 -57 21t-22 53q0 37 26 61t64 24q35 0 57.5 -21t22.5 -53q0 -38 -26.5 -61.5t-64.5 -23.5z" />
    <glyph glyph-name="macron.cap" 
d="M176 733l26 109h270l-25 -109h-271z" />
    <glyph glyph-name="acute.cap" 
d="M257 723v33l50 102h165v-42l-115 -93h-100z" />
    <glyph glyph-name="circumflex.cap" 
d="M163 723v38l109 100h118l74 -100v-38h-99l-47 39l-64 -39h-91z" />
    <glyph glyph-name="caron.cap" 
d="M483 861v-38l-109 -100h-117l-75 100v38h99l47 -39l64 39h91z" />
    <glyph glyph-name="breve.cap" 
d="M325 723q-60 0 -96 29t-42 70v39h105q0 -13 9.5 -22.5t28.5 -9.5q37 0 46 32h101v-39q-15 -43 -54 -71t-98 -28z" />
    <glyph glyph-name="dotaccent.cap" 
d="M323 723q-39 0 -63 22t-24 56q0 39 28 64.5t70 25.5q39 0 63.5 -22t24.5 -56q0 -40 -29 -65t-70 -25z" />
    <glyph glyph-name="ring.cap" 
d="M328 723q-44 0 -73 26t-29 69q0 48 33.5 78.5t78.5 30.5q43 0 72.5 -26.5t29.5 -70.5q0 -48 -33 -77.5t-79 -29.5zM330 789q17 0 27 11t10 29q0 15 -9 23.5t-23 8.5q-16 0 -25.5 -11t-9.5 -30q0 -31 30 -31z" />
    <glyph glyph-name="tilde.cap" 
d="M376 723q-28 0 -62 13t-43 13q-25 0 -34 -26h-87v40q33 103 120 103q26 0 60.5 -12t43.5 -12q22 0 33 24h87v-40q-33 -103 -118 -103z" />
    <glyph glyph-name="hungarumlaut.cap" 
d="M175 723v29l40 106h136v-42l-87 -93h-89zM354 723v29l41 106h135v-42l-87 -93h-89z" />
    </font>
</defs>
</svg>
